<svg xmlns="http://www.w3.org/2000/svg" xmlns:xlink="http://www.w3.org/1999/xlink" width="600" height="480" viewBox="0 0 600 480">
    <defs>
        <path id="a" d="M0 .597h599.562v8.474H0z"/>
        <path id="c" d="M.24.612h208.933v164.792H.24z"/>
        <path id="e" d="M.555.612H28.1v116.681H.555z"/>
        <path id="g" d="M.269.612h26.877v164.792H.27z"/>
        <path id="i" d="M.169 30.434c-.621 16.735 12.673 30.302 29.695 30.302 17.021 0 31.324-13.567 31.946-30.302C62.43 13.698 49.136.13 32.115.13 15.092.13.79 13.698.169 30.434"/>
        <path id="k" d="M.169 30.434c-.621 16.735 12.673 30.302 29.695 30.302 17.021 0 31.324-13.567 31.946-30.302C62.43 13.698 49.136.13 32.115.13 15.092.13.79 13.698.169 30.434"/>
        <path id="m" d="M.169 30.434c-.621 16.735 12.673 30.302 29.695 30.302 17.021 0 31.324-13.567 31.946-30.302C62.43 13.698 49.136.13 32.115.13 15.092.13.79 13.698.169 30.434"/>
        <path id="o" d="M.169 30.434c-.621 16.735 12.673 30.302 29.695 30.302 17.021 0 31.324-13.567 31.946-30.302C62.43 13.698 49.136.13 32.115.13 15.092.13.79 13.698.169 30.434z"/>
        <path id="q" d="M.169 30.434c-.621 16.735 12.673 30.302 29.695 30.302 17.021 0 31.324-13.567 31.946-30.302C62.43 13.698 49.136.13 32.115.13 15.092.13.79 13.698.169 30.434"/>
        <path id="s" d="M.169 30.434c-.621 16.735 12.673 30.302 29.695 30.302 17.021 0 31.324-13.567 31.946-30.302C62.43 13.698 49.136.13 32.115.13 15.092.13.79 13.698.169 30.434"/>
        <path id="u" d="M.169 30.434c-.621 16.735 12.673 30.302 29.695 30.302 17.021 0 31.324-13.567 31.946-30.302C62.43 13.698 49.136.13 32.115.13 15.092.13.79 13.698.169 30.434"/>
        <path id="w" d="M.169 30.434c-.621 16.735 12.673 30.302 29.695 30.302 17.021 0 31.324-13.567 31.946-30.302C62.43 13.698 49.136.13 32.115.13 15.092.13.79 13.698.169 30.434"/>
        <path id="y" d="M.169 30.434c-.621 16.735 12.673 30.302 29.695 30.302 17.021 0 31.324-13.567 31.946-30.302C62.43 13.698 49.136.13 32.115.13 15.092.13.79 13.698.169 30.434"/>
        <path id="A" d="M.169 30.434c-.621 16.735 12.673 30.302 29.695 30.302 17.021 0 31.324-13.567 31.946-30.302C62.43 13.698 49.136.13 32.115.13 15.092.13.79 13.698.169 30.434"/>
    </defs>
    <g fill="none" fill-rule="evenodd">
        <path fill="#C2D4EA" d="M86.063 387.388v-282.02a4.953 4.953 0 0 1 4.956-4.95h417.524a4.953 4.953 0 0 1 4.956 4.95v282.02a4.954 4.954 0 0 1-4.956 4.951H91.018a4.953 4.953 0 0 1-4.955-4.95"/>
        <path fill="#4A4A4A" d="M509.33 358.326H90.23a4.178 4.178 0 0 1-4.167-4.164V104.581a4.178 4.178 0 0 1 4.167-4.163h419.1a4.178 4.178 0 0 1 4.169 4.163v249.581a4.178 4.178 0 0 1-4.168 4.164"/>
        <path fill="#9B9B9B" d="M487.358 338.529H111.046c-5.547 0-10.04-4.5-10.025-10.043l.551-201.06c.015-5.521 4.499-9.989 10.025-9.989H487.91c5.548 0 10.04 4.502 10.025 10.044l-.55 201.06c-.016 5.52-4.5 9.988-10.027 9.988"/>
        <g transform="translate(0 470.318)">
            <mask id="b" fill="#fff">
                <use xlink:href="#a"/>
            </mask>
            <path fill="#2C4482" d="M599.562.597H0V6.17c0 3.12 2.618 2.898 2.618 2.898H596.944s2.618.223 2.618-2.898V.597z" mask="url(#b)"/>
        </g>
        <path fill="#E2EAF5" d="M598.125 472.54H1.437c-1.312 0-1.936-1.617-.962-2.496l85.51-77.25a1.43 1.43 0 0 1 .961-.37h425.67c.355 0 .697.13.961.37l85.51 77.25c.973.879.35 2.495-.962 2.495"/>
        <path fill="#C2D4EA" d="M384.43 463.882H215.182c-2.21 0-3.087-1.72-1.977-3.772l8.402-15.53c.884-1.634 3.155-2.944 5.064-2.944H372.94c1.91 0 4.18 1.31 5.065 2.944l8.4 15.53c1.112 2.053.234 3.772-1.975 3.772M126.538 400.144h-16.645c-2.32 0-3.734-.43-3.16-.958l1.69-1.552c.562-.517 2.86-.932 5.136-.932h16.324c2.276 0 3.728.415 3.238.932l-1.472 1.552c-.5.528-2.79.958-5.111.958M154.607 400.144h-16.644c-2.32 0-3.802-.43-3.31-.958l1.446-1.552c.48-.517 2.713-.932 4.99-.932h16.323c2.277 0 3.793.415 3.385.932l-1.228 1.552c-.418.528-2.64.958-4.962.958M182.678 400.144h-16.645c-2.32 0-3.869-.43-3.46-.958l1.202-1.552c.399-.517 2.566-.932 4.843-.932h16.323c2.277 0 3.86.415 3.532.932l-.985 1.552c-.335.528-2.49.958-4.81.958M210.748 400.144h-16.645c-2.32 0-3.937-.43-3.61-.958l.957-1.552c.318-.517 2.42-.932 4.697-.932h16.324c2.276 0 3.924.415 3.678.932l-.741 1.552c-.253.528-2.34.958-4.66.958M238.817 400.144h-16.644c-2.321 0-4.004-.43-3.762-.958l.715-1.552c.237-.517 2.273-.932 4.55-.932h16.323c2.277 0 3.99.415 3.824.932l-.496 1.552c-.169.528-2.188.958-4.51.958M266.888 400.144h-16.645c-2.32 0-4.072-.43-3.912-.958l.47-1.552c.157-.517 2.128-.932 4.404-.932h16.324c2.276 0 4.054.415 3.97.932l-.252 1.552c-.087.528-2.039.958-4.36.958M294.957 400.144h-16.644c-2.32 0-4.14-.43-4.063-.958l.227-1.552c.075-.517 1.982-.932 4.258-.932h16.324c2.276 0 4.119.415 4.116.932l-.01 1.552c-.002.528-1.886.958-4.208.958M323.028 400.144h-16.644c-2.322 0-4.209-.43-4.214-.958l-.017-1.552c-.006-.517 1.835-.932 4.111-.932h16.324c2.277 0 4.185.415 4.263.932l.234 1.552c.08.528-1.737.958-4.057.958M351.098 400.144h-16.645c-2.32 0-4.275-.43-4.364-.958l-.26-1.552c-.087-.517 1.688-.932 3.964-.932h16.324c2.277 0 4.25.415 4.41.932l.478 1.552c.163.528-1.586.958-3.907.958M379.168 400.144h-16.645c-2.32 0-4.343-.43-4.514-.958l-.505-1.552c-.168-.517 1.542-.932 3.819-.932h16.323c2.277 0 4.316.415 4.556.932l.723 1.552c.245.528-1.436.958-3.757.958M407.238 400.144h-16.644c-2.322 0-4.411-.43-4.666-.958l-.748-1.552c-.249-.517 1.395-.932 3.672-.932h16.323c2.277 0 4.381.415 4.703.932l.966 1.552c.328.528-1.286.958-3.606.958M435.307 400.144h-16.644c-2.32 0-4.477-.43-4.815-.958l-.993-1.552c-.33-.517 1.25-.932 3.526-.932h16.324c2.276 0 4.446.415 4.849.932l1.209 1.552c.412.528-1.134.958-3.456.958M463.378 400.144h-16.644c-2.322 0-4.546-.43-4.967-.958l-1.236-1.552c-.411-.517 1.104-.932 3.38-.932h16.324c2.276 0 4.512.415 4.994.932l1.454 1.552c.494.528-.985.958-3.305.958M491.448 400.144h-16.645c-2.32 0-4.613-.43-5.117-.958l-1.48-1.552c-.49-.517.957-.932 3.234-.932h16.324c2.277 0 4.577.415 5.14.932l1.698 1.552c.579.528-.833.958-3.154.958M122.656 406.069h-21.523c-.537 0-.86-.104-.722-.23l5.363-4.95c.13-.12.657-.217 1.177-.217h20.894c.521 0 .85.097.736.217l-4.735 4.95c-.12.126-.653.23-1.19.23M160.34 412.738h-22.303c-.555 0-.91-.11-.794-.246l4.528-5.309c.11-.128.634-.232 1.172-.232h21.628c.538 0 .9.104.805.232l-3.852 5.309c-.099.136-.63.246-1.184.246M161.837 419.908h-23.138c-.576 0-.946-.119-.826-.266l4.674-5.706c.112-.138.657-.25 1.215-.25h22.412c.559 0 .933.112.838.25l-3.949 5.706c-.101.147-.65.266-1.226.266M172.763 427.636h-24.038c-.6 0-.99-.129-.873-.287l4.553-6.153c.11-.148.669-.268 1.248-.268h23.256c.579 0 .975.12.883.268l-3.77 6.153c-.097.158-.66.287-1.259.287M92.891 436.948H67.908c-.665 0-1.041-.149-.843-.332l8.205-7.573c.185-.171.852-.308 1.491-.308h24.032c.638 0 1.025.137.862.308l-7.243 7.573c-.175.183-.856.332-1.52.332M126.255 436.948h-24.983c-.664 0-1.065-.149-.894-.332l7.032-7.573c.158-.171.805-.308 1.443-.308h24.033c.638 0 1.046.137.91.308l-6.071 7.573c-.147.183-.805.332-1.47.332M158.614 436.948h-24.985c-.664 0-1.086-.149-.944-.332l5.895-7.573c.133-.171.759-.308 1.398-.308h24.032c.64 0 1.067.137.956.308l-4.934 7.573c-.119.183-.754.332-1.418.332M199.393 436.948h-32.967c-.759 0-1.267-.17-1.136-.38l4.693-7.481c.122-.195.812-.352 1.541-.352h31.71c.73 0 1.25.157 1.16.352l-3.452 7.482c-.097.209-.79.379-1.55.379M402.196 436.948H369.23c-.758 0-1.427-.17-1.493-.38l-2.349-7.481c-.06-.195.48-.352 1.211-.352h31.71c.73 0 1.397.157 1.49.352l3.59 7.482c.1.209-.434.379-1.193.379M435.572 436.948H410.94c-.66 0-1.269-.147-1.36-.33l-3.853-7.578c-.086-.169.359-.305.994-.305h23.692c.634 0 1.235.136 1.343.305l4.802 7.578c.115.183-.326.33-.986.33M361.007 436.948H208.89c-1.595 0-2.731-.358-2.54-.796l2.919-6.676c.178-.41 1.567-.74 3.102-.74H358.69c1.534 0 2.876.33 2.997.74l1.974 6.676c.13.438-1.059.796-2.654.796M203.979 427.636H179.94c-.598 0-1.008-.129-.914-.287l3.62-6.153c.087-.148.628-.268 1.207-.268h23.256c.579 0 .994.12.925.268l-2.84 6.153c-.072.158-.617.287-1.215.287M235.195 427.636h-24.039c-.598 0-1.027-.129-.958-.287l2.69-6.153c.064-.148.586-.268 1.166-.268h23.255c.58 0 1.012.12.966.268l-1.908 6.153c-.049.158-.574.287-1.172.287M266.411 427.636h-24.038c-.6 0-1.047-.129-1.002-.287l1.758-6.153c.042-.148.546-.268 1.125-.268h23.257c.578 0 1.029.12 1.005.268l-.976 6.153c-.025.158-.53.287-1.129.287M297.627 427.636h-24.039c-.598 0-1.066-.129-1.044-.287l.826-6.153c.02-.148.505-.268 1.085-.268h23.256c.579 0 1.048.12 1.046.268l-.043 6.153c-.002.158-.488.287-1.087.287M328.844 427.636h-24.04c-.598 0-1.085-.129-1.088-.287l-.105-6.153c-.002-.148.465-.268 1.044-.268h23.257c.578 0 1.065.12 1.087.268l.887 6.153c.023.158-.444.287-1.042.287M360.06 427.636h-24.04c-.598 0-1.104-.129-1.131-.287l-1.037-6.153c-.025-.148.425-.268 1.003-.268h23.257c.58 0 1.084.12 1.129.268l1.818 6.153c.047.158-.401.287-1 .287M391.275 427.636h-24.038c-.598 0-1.125-.129-1.176-.287l-1.968-6.153c-.047-.148.384-.268.964-.268h23.256c.58 0 1.102.12 1.169.268l2.75 6.153c.07.158-.358.287-.957.287M422.491 427.636h-24.038c-.6 0-1.144-.129-1.219-.287l-2.9-6.153c-.069-.148.343-.268.923-.268h23.256c.58 0 1.12.12 1.21.268l3.681 6.153c.095.158-.314.287-.913.287M465.128 437.078h-19.11c-2.43 0-4.757-.544-5.194-1.211l-1.266-1.93c-.426-.65 1.16-1.175 3.541-1.175h18.728c2.381 0 4.724.524 5.234 1.175l1.517 1.93c.523.667-1.02 1.21-3.45 1.21M497.874 437.078h-19.11c-2.43 0-4.838-.544-5.377-1.211l-1.56-1.93c-.525-.65.981-1.175 3.363-1.175h18.728c2.381 0 4.803.524 5.413 1.175l1.809 1.93c.625.667-.835 1.21-3.266 1.21M493.45 432.25h-18.683c-2.375 0-4.721-.518-5.236-1.156l-1.49-1.846c-.503-.622.98-1.124 3.309-1.124h18.317c2.329 0 4.687.502 5.27 1.124l1.73 1.846c.597.638-.841 1.157-3.217 1.157M530.62 437.078h-19.11c-2.43 0-4.92-.544-5.56-1.211l-1.853-1.93c-.624-.65.802-1.175 3.183-1.175h18.728c2.382 0 4.883.524 5.592 1.175l2.102 1.93c.726.667-.651 1.21-3.082 1.21M192.16 419.908h-23.137c-.576 0-.964-.119-.866-.266l3.802-5.706c.092-.138.619-.25 1.176-.25h22.413c.557 0 .95.112.876.25l-3.077 5.706c-.079.147-.61.266-1.187.266M222.484 419.908h-23.136c-.577 0-.983-.119-.907-.266l2.93-5.706c.07-.138.58-.25 1.139-.25h22.411c.558 0 .967.112.914.25l-2.204 5.706c-.058.147-.57.266-1.147.266M252.81 419.908h-23.138c-.577 0-1-.119-.948-.266l2.058-5.706c.05-.138.542-.25 1.101-.25h22.412c.558 0 .985.112.953.25l-1.334 5.706c-.034.147-.528.266-1.105.266M282.948 419.908H259.81c-.577 0-1.02-.119-.988-.266l1.19-5.706c.03-.138.505-.25 1.064-.25h22.412c.558 0 1.001.112.99.25l-.466 5.706c-.012.147-.489.266-1.065.266M313.272 419.908h-23.137c-.576 0-1.037-.119-1.029-.266l.32-5.706c.007-.138.467-.25 1.024-.25h22.413c.557 0 1.018.112 1.027.25l.407 5.706c.01.147-.448.266-1.025.266M342.298 419.908H319.16c-.576 0-1.055-.119-1.067-.266l-.516-5.706c-.013-.138.43-.25.99-.25h22.411c.558 0 1.034.112 1.065.25l1.24 5.706c.032.147-.41.266-.986.266M372.345 419.908h-23.138c-.576 0-1.072-.119-1.107-.266l-1.379-5.706c-.033-.138.391-.25.95-.25h22.412c.558 0 1.051.112 1.103.25l2.104 5.706c.053.147-.37.266-.945.266M402.39 419.908h-23.137c-.576 0-1.09-.119-1.147-.266l-2.244-5.706c-.053-.138.355-.25.913-.25h22.412c.559 0 1.069.112 1.14.25l2.969 5.706c.076.147-.329.266-.906.266M432.252 419.908h-23.138c-.576 0-1.108-.119-1.187-.266l-3.102-5.706c-.076-.138.317-.25.874-.25h22.412c.559 0 1.086.112 1.178.25l3.828 5.706c.098.147-.29.266-.865.266M462.112 419.908h-23.137c-.577 0-1.126-.119-1.228-.266l-3.96-5.706c-.096-.138.28-.25.837-.25h22.412c.558 0 1.102.112 1.215.25l4.687 5.706c.12.147-.25.266-.826.266M453.402 427.636h-24.038c-.599 0-1.163-.129-1.262-.287l-3.821-6.153c-.092-.148.302-.268.882-.268h23.255c.58 0 1.139.12 1.25.268l4.604 6.153c.118.158-.271.287-.87.287M515.014 419.908h-44.677c-.791 0-1.571-.164-1.742-.364l-4.687-5.515c-.162-.19.33-.342 1.095-.342h43.277c.766 0 1.554.152 1.762.342l6.008 5.515c.219.2-.244.364-1.036.364M523.15 427.636h-62.243c-.948 0-1.872-.204-2.065-.454l-4.495-5.829c-.181-.235.415-.425 1.332-.425h60.22c.916 0 1.867.19 2.123.425l6.352 5.83c.272.25-.275.453-1.223.453M131.765 419.908H86.607c-.795 0-1.262-.164-1.043-.366l5.972-5.512c.206-.19.997-.343 1.767-.343h43.742c.77 0 1.264.153 1.105.343l-4.638 5.512c-.17.202-.952.366-1.747.366M141.16 427.636H78.008c-.955 0-1.507-.205-1.233-.457l6.323-5.823c.258-.236 1.215-.428 2.138-.428h61.096c.924 0 1.526.192 1.345.428l-4.442 5.823c-.193.252-1.122.457-2.077.457M189.42 412.738h-22.303c-.555 0-.928-.11-.832-.246l3.72-5.309c.09-.128.6-.232 1.139-.232h21.627c.539 0 .916.104.841.232l-3.046 5.309c-.078.136-.591.246-1.147.246M218.32 412.738H196.02c-.556 0-.945-.11-.87-.246l2.918-5.309c.07-.128.565-.232 1.103-.232h21.627c.539 0 .932.104.877.232l-2.244 5.309c-.058.136-.555.246-1.11.246M247.4 412.738h-22.302c-.554 0-.96-.11-.907-.246l2.112-5.309c.051-.128.529-.232 1.067-.232h21.627c.54 0 .947.104.912.232l-1.436 5.309c-.038.136-.517.246-1.073.246M276.48 412.738H254.18c-.556 0-.98-.11-.945-.246l1.305-5.309c.03-.128.493-.232 1.032-.232h21.626c.54 0 .964.104.948.232l-.63 5.309c-.016.136-.48.246-1.035.246M305.38 412.738h-22.3c-.556 0-.995-.11-.982-.246l.503-5.309c.012-.128.458-.232.997-.232h21.626c.539 0 .98.104.983.232l.172 5.309c.004.136-.443.246-.998.246M333.627 412.738h-22.302c-.555 0-1.01-.11-1.018-.246l-.28-5.309c-.008-.128.423-.232.962-.232h21.626c.54 0 .995.104 1.018.232l.956 5.309c.024.136-.407.246-.962.246M362.945 412.738h-22.302c-.555 0-1.028-.11-1.056-.246l-1.093-5.309c-.028-.128.387-.232.926-.232h21.627c.539 0 1.01.104 1.052.232l1.77 5.309c.045.136-.369.246-.924.246M391.906 412.738h-22.302c-.555 0-1.044-.11-1.093-.246l-1.899-5.309c-.045-.128.354-.232.893-.232h21.626c.54 0 1.026.104 1.088.232l2.573 5.309c.066.136-.331.246-.886.246M420.39 412.738h-22.302c-.555 0-1.062-.11-1.13-.246l-2.688-5.309c-.065-.128.319-.232.857-.232h21.627c.539 0 1.04.104 1.123.232l3.362 5.309c.086.136-.294.246-.85.246M450.065 412.738h-22.301c-.555 0-1.078-.11-1.17-.246l-3.51-5.309c-.085-.128.282-.232.821-.232h21.627c.54 0 1.057.104 1.159.232l4.185 5.309c.108.136-.255.246-.81.246M478.43 412.738h-22.302c-.554 0-1.095-.11-1.204-.246l-4.3-5.309c-.103-.128.249-.232.788-.232h21.627c.539 0 1.073.104 1.193.232l4.972 5.309c.128.136-.218.246-.774.246M507.63 412.738h-22.302c-.556 0-1.112-.11-1.243-.246l-5.11-5.309c-.122-.128.214-.232.752-.232h21.627c.54 0 1.09.104 1.23.232l5.783 5.309c.148.136-.183.246-.737.246M151.125 406.069H129.6c-.535 0-.875-.104-.756-.23l4.6-4.95c.11-.12.622-.217 1.142-.217h20.895c.52 0 .864.097.768.217l-3.97 4.95c-.101.126-.619.23-1.155.23M178.731 406.069h-21.523c-.537 0-.89-.104-.792-.23l3.859-4.95c.094-.12.592-.217 1.111-.217h20.895c.52 0 .88.097.8.217l-3.23 4.95c-.082.126-.584.23-1.12.23M207.027 406.069h-21.524c-.535 0-.906-.104-.827-.23l3.102-4.95c.075-.12.557-.217 1.077-.217h20.896c.52 0 .893.097.833.217l-2.471 4.95c-.063.126-.55.23-1.086.23M234.618 406.069h-21.523c-.536 0-.922-.104-.861-.23l2.361-4.95c.057-.12.525-.217 1.046-.217h20.894c.521 0 .909.097.867.217l-1.732 4.95c-.045.126-.515.23-1.052.23M263.073 406.069h-21.524c-.536 0-.938-.104-.897-.23l1.599-4.95c.038-.12.492-.217 1.012-.217h20.896c.52 0 .922.097.899.217l-.97 4.95c-.024.126-.48.23-1.015.23M290.42 406.069h-21.524c-.535 0-.952-.104-.93-.23l.865-4.95c.02-.12.46-.217.98-.217h20.895c.52 0 .937.097.931.217l-.235 4.95c-.007.126-.446.23-.982.23M318.832 406.069h-21.525c-.535 0-.969-.104-.966-.23l.104-4.95c.003-.12.426-.217.947-.217h20.895c.52 0 .952.097.965.217l.525 4.95c.014.126-.41.23-.945.23M346.437 406.069h-21.523c-.537 0-.985-.104-1.001-.23l-.636-4.95c-.016-.12.393-.217.914-.217h20.895c.52 0 .967.097.997.217l1.266 4.95c.032.126-.376.23-.912.23M374.79 406.069h-21.523c-.536 0-1-.104-1.035-.23l-1.397-4.95c-.034-.12.36-.217.88-.217h20.896c.52 0 .982.097 1.03.217l2.026 4.95c.053.126-.34.23-.877.23M403.087 406.069h-21.524c-.536 0-1.016-.104-1.07-.23l-2.156-4.95c-.052-.12.328-.217.847-.217h20.895c.52 0 .998.097 1.065.217l2.783 4.95c.072.126-.304.23-.84.23M431.095 406.069h-21.523c-.537 0-1.032-.104-1.106-.23l-2.906-4.95c-.07-.12.294-.217.815-.217h20.895c.52 0 1.011.097 1.097.217l3.535 4.95c.09.126-.27.23-.807.23M458.011 406.069h-21.524c-.536 0-1.046-.104-1.139-.23l-3.628-4.95c-.087-.12.264-.217.783-.217h20.895c.522 0 1.026.097 1.13.217l4.256 4.95c.109.126-.237.23-.773.23M498.356 406.069h-32.193c-1.489 0-2.948-.286-3.258-.637l-3.675-4.156c-.296-.334.637-.604 2.083-.604h31.252c1.445 0 2.91.27 3.274.604l4.52 4.156c.382.351-.514.637-2.003.637M129.085 412.738H95.729c-1.543 0-2.461-.306-2.053-.683l4.829-4.457c.387-.357 1.914-.647 3.41-.647h32.346c1.495 0 2.454.29 2.14.647l-3.922 4.457c-.332.377-1.852.683-3.394.683"/>
        <g transform="translate(245.902 .144)">
            <mask id="d" fill="#fff">
                <use xlink:href="#c"/>
            </mask>
            <path fill="#97CAFF" d="M209.173.611H13.543C6.195.611.24 6.561.24 13.901v138.214c0 7.34 5.956 13.29 13.302 13.29h152.706c20.407 0 29.623-16.529 29.623-36.917V13.902c0-7.34 5.956-13.29 13.302-13.29" mask="url(#d)"/>
        </g>
        <path fill="#8DB0DA" d="M414.897 152.26V62.152c0-7.34-5.956-13.29-13.303-13.29h-.94c-7.345 0-13.301 5.95-13.301 13.29v103.396H428.199c-7.347 0-13.302-5.95-13.302-13.29"/>
        <g transform="translate(441.11 .144)">
            <mask id="f" fill="#fff">
                <use xlink:href="#e"/>
            </mask>
            <path fill="#8DB0DA" d="M28.1 117.293V13.902c0-7.34-5.957-13.29-13.303-13.29h-.94C6.512.611.556 6.561.556 13.901v103.391H28.1z" mask="url(#f)"/>
        </g>
        <g transform="translate(414.628 .144)">
            <mask id="h" fill="#fff">
                <use xlink:href="#g"/>
            </mask>
            <path fill="#97CAFF" d="M13.844.611h-.273C6.224.611.269 6.561.269 13.901v138.213c0 7.34 5.955 13.29 13.302 13.29h.273c7.347 0 13.302-5.95 13.302-13.29V13.903c0-7.34-5.955-13.29-13.302-13.29" mask="url(#h)"/>
        </g>
        <path fill="#DDE6F5" d="M400.654 48.863H191.035c-7.347 0-13.303 5.95-13.303 13.29l2.016 276.376h209.62l-2.016-276.376c0-7.34 5.956-13.29 13.302-13.29"/>
        <path fill="#C2D4EA" d="M264.57 107.735c.05 16.8-13.385 30.42-30.008 30.42-16.623 0-30.137-13.62-30.187-30.42-.049-16.8 13.386-30.42 30.009-30.42 16.621 0 30.137 13.62 30.186 30.42"/>
        <path fill="#FFF" d="M360.486 96.07h-75.13c-2.49 0-4.533-2.059-4.54-4.574-.008-2.517 2.023-4.575 4.512-4.575h75.131c2.49 0 4.532 2.058 4.54 4.575.007 2.515-2.024 4.574-4.513 4.574"/>
        <path fill="#C2D4EA" d="M360.547 116.884h-75.13c-2.49 0-4.532-2.059-4.54-4.575-.007-2.516 2.023-4.574 4.513-4.574h75.13c2.489 0 4.532 2.058 4.54 4.574.007 2.516-2.024 4.575-4.513 4.575M260.8 106.924c-.62 16.736-14.923 30.303-31.945 30.303s-30.316-13.567-29.695-30.303c.622-16.736 14.924-30.303 31.946-30.303 17.021 0 30.316 13.567 29.695 30.303"/>
        <g>
            <g transform="translate(198.991 76.49)">
                <mask id="j" fill="#fff">
                    <use xlink:href="#i"/>
                </mask>
                <path fill="#492817" d="M22.312 30.95c.343 1.156.804 2.338 1.773 3.141 1.423 1.18 3.57 1.27 5.533 1.296 2.263.032 4.747-.003 6.526-1.323 1.005-.746 1.647-1.817 2.123-2.904 1.648-3.756 1.551-8.06-.26-11.65-.329-.651-.724-1.294-1.326-1.757-.786-.606-1.85-.846-2.894-.935-2.655-.228-5.424.432-7.661 1.824-2.149 1.337-3.932 3.44-4.647 5.709-.64 2.039.257 4.658.833 6.599" mask="url(#j)"/>
            </g>
            <g transform="translate(198.991 76.49)">
                <mask id="l" fill="#fff">
                    <use xlink:href="#k"/>
                </mask>
                <path fill="#FFAA81" d="M34.691 46.29c-1.092.704-4.206.27-5.246.85-1.034.578-4.495.753-5.492.484.185-5.005 2.706-10.068 2.92-14.674 1.898 4.235 4.137 1.91 6.333-.988-.208 4.5 1.596 9.8 1.485 14.328" mask="url(#l)"/>
            </g>
            <g transform="translate(198.991 76.49)">
                <mask id="n" fill="#fff">
                    <use xlink:href="#m"/>
                </mask>
                <path fill="#F4946E" d="M26.65 36.531c.153.506.428 1.002.682 1.407.519.826 1.333 1.398 2.306 1.673 1.138.32 2.33-.252 3.221-.98.293-.24.575-.493.849-.751-.327-2.036-.588-4.047-.502-5.918-2.196 2.898-4.435 5.223-6.332.988.119.266-.072.944-.11 1.237-.056.456-.154.907-.217 1.361-.044.317.004.652.104.983" mask="url(#n)"/>
            </g>
            <g transform="translate(198.991 76.49)">
                <mask id="p" fill="#fff">
                    <use xlink:href="#o"/>
                </mask>
                <path fill="#FFD22E" d="M45.886 66.962c-.168-1.725-.336-3.452-.524-5.177a233.487 233.487 0 0 0-.492-4.18c-.182-1.427-.353-2.887-.544-4.358-.537-4.12-1.016-9.238-2.639-12.986a1.8 1.8 0 0 1-.11-.348c-.087-.02-6.04-2.172-7.914-2.317 0 1.365-1.201 4.577-3.921 4.552-1.699-.016-3.655-2.465-3.657-4.552-2.518.224-8.08 2.35-8.1 2.353-1.346.28-2.503 8.009-2.698 9.01-.85 4.344-1.78 8.6-2.514 12.947l-.022.127a612.87 612.87 0 0 0-.804 4.929h33.939z" mask="url(#p)"/>
            </g>
            <g transform="translate(198.991 76.49)">
                <mask id="r" fill="#fff">
                    <use xlink:href="#q"/>
                </mask>
                <path fill="#F4C42A" d="M17.986 39.95l.071-.015c-1.497.448-4.276 2.14-5.748 2.94-2.419 1.314-4.482 3.423-6.11 5.956-1.466 2.275-2.592 4.816-3.482 7.478a9.5 9.5 0 0 0 2.929 3.286c1.753 1.225 5.319 2.523 5.67 2.677.857-1.504 1.635-2.417 1.982-3.222.601-3.168 1.363-6.899 1.988-10.09.196-1.002 1.353-8.73 2.7-9.01" mask="url(#r)"/>
            </g>
            <g transform="translate(198.991 76.49)">
                <mask id="t" fill="#fff">
                    <use xlink:href="#s"/>
                </mask>
                <path fill="#F4C42A" d="M52.884 48.493c-1.44-2.567-3.346-4.704-5.667-6.036-1.55-.89-5.727-2.564-5.64-2.544.024.117 2.212 9.215 2.749 13.335.191 1.47.18 1.502.362 2.93.176 1.387 1.765 4.876 2.908 6.321 1.611-.442 4.194-1.858 5.373-2.594 1.801-1.124 2.124-1.834 2.793-2.679-.69-2.698-1.584-6.426-2.878-8.733" mask="url(#t)"/>
            </g>
            <g transform="translate(198.991 76.49)">
                <mask id="v" fill="#fff">
                    <use xlink:href="#u"/>
                </mask>
                <path fill="#FFAA81" d="M22.433 27.593c.25 2.174.74 4.363 1.923 6.184 1.184 1.82 3.162 3.228 5.393 3.302 2.823.093 5.437-1.968 6.793-4.456 1.355-2.488 1.698-5.343 1.96-8.12.222-2.36.381-4.855-.679-6.938-.386-.758-.934-1.443-1.65-1.914-.507-.334-1.086-.554-1.677-.721-2.524-.715-5.384-.464-7.725.844-4.594 2.567-4.856 7.317-4.338 11.82" mask="url(#v)"/>
            </g>
            <g transform="translate(198.991 76.49)">
                <mask id="x" fill="#fff">
                    <use xlink:href="#w"/>
                </mask>
                <path fill="#492817" d="M40.8 17.901c.733-.74 1.245-1.68 1.302-2.685.018-.334-.201-.789-.513-.644l-.197.632c-.461.13-.877-.247-1.186-.592a34.136 34.136 0 0 1-1.077-1.239 9.078 9.078 0 0 0-.73-.974c-.046-.07-.093-.137-.137-.209-.407-.638-.74-1.33-1.247-1.894-1.439-1.593-3.897-1.791-6.105-1.704-1.365.053-2.757.179-4.035.694-1.28.514-2.448 1.472-2.92 2.747a3.435 3.435 0 0 0-.13.463c-3.042 1.856-4.854 5.677-4.085 9.059.26 1.143.774 2.301.494 3.452.07.668.117 1.34.147 2.014.473.54 1.253.816 1.787.334.385-.348.44-.912.466-1.418l.235-4.48c.014-.277.033-.566.176-.81.145-.248.398-.414.634-.583a8.103 8.103 0 0 0 2.337-2.625c.974.912 2.104 1.623 3.054 1.98 2.025.762 4.283.823 6.472.572.605-.07 1.213-.164 1.81-.306l.149 6.218c.017.765.163 1.708.904 1.925.503.148 1.07-.154 1.386-.584.316-.43.437-.961.542-1.476.52-2.54.85-5.148.496-7.684-.008-.062-.019-.122-.029-.183" mask="url(#x)"/>
            </g>
            <g transform="translate(198.991 76.49)">
                <mask id="z" fill="#fff">
                    <use xlink:href="#y"/>
                </mask>
                <path fill="#F4946E" d="M22.97 28.529c-.048-1.156-.28-2.38-.259-3.54-.192-.114-.278-.119-.502-.143-.193-.02-.397-.006-.572.097-.3.177-.437.565-.528.923-.295 1.156-.388 2.393-.083 3.52.304 1.127 1.045 2.129 2.061 2.507.138.052.214.072.357.037-.289-1.125-.424-2.206-.474-3.401" mask="url(#z)"/>
            </g>
            <g transform="translate(198.991 76.49)">
                <mask id="B" fill="#fff">
                    <use xlink:href="#A"/>
                </mask>
                <path fill="#F4946E" d="M39.788 25.865c-.064-.357-.172-.745-.459-.923-.167-.102-.371-.116-.566-.096-.445.047-.858.292-1.178.644a.544.544 0 0 0-.133.066c.003.678-.029 1.358-.054 2.05-.049 1.343-.035 2.139-.279 3.474-.025.133-.212.84-.267.957.13.021.382-.097.51-.143 1.045-.38 1.86-1.381 2.249-2.508.387-1.128.386-2.364.177-3.52" mask="url(#B)"/>
            </g>
        </g>
        <g>
            <path fill="#8DB0DA" d="M212.495 166.468a3.982 3.982 0 0 0-3.98 3.975v12.689a3.982 3.982 0 0 0 3.98 3.976h12.701a3.982 3.982 0 0 0 3.98-3.976v-12.689a3.982 3.982 0 0 0-3.98-3.975h-12.7zm12.701 23.348h-12.7c-3.69 0-6.69-3-6.69-6.684v-12.689c0-3.684 3-6.683 6.69-6.683h12.7c3.689 0 6.69 2.999 6.69 6.683v12.689c0 3.685-3.001 6.684-6.69 6.684zM212.495 204.669a3.982 3.982 0 0 0-3.98 3.976v12.688a3.982 3.982 0 0 0 3.98 3.976h12.701a3.982 3.982 0 0 0 3.98-3.976v-12.688a3.982 3.982 0 0 0-3.98-3.976h-12.7zm12.701 23.347h-12.7c-3.69 0-6.69-2.998-6.69-6.683v-12.688c0-3.685 3-6.684 6.69-6.684h12.7c3.689 0 6.69 2.999 6.69 6.684v12.688c0 3.685-3.001 6.683-6.69 6.683zM212.495 242.34a3.982 3.982 0 0 0-3.98 3.976v12.69a3.983 3.983 0 0 0 3.98 3.975h12.701a3.982 3.982 0 0 0 3.98-3.976v-12.689a3.982 3.982 0 0 0-3.98-3.976h-12.7zm12.701 23.348h-12.7c-3.69 0-6.69-2.998-6.69-6.683v-12.689c0-3.685 3-6.683 6.69-6.683h12.7c3.689 0 6.69 2.998 6.69 6.683v12.69c0 3.684-3.001 6.682-6.69 6.682z"/>
            <path fill="#FFF" d="M365.316 170.408H271.3a1.21 1.21 0 0 1-1.207-1.205v-.237a1.21 1.21 0 0 1 1.207-1.204h94.016a1.21 1.21 0 0 1 1.207 1.204v.237a1.21 1.21 0 0 1-1.207 1.205M365.316 178.111H254.562a1.21 1.21 0 0 1-1.206-1.205v-.236a1.21 1.21 0 0 1 1.206-1.206h110.754a1.21 1.21 0 0 1 1.207 1.206v.236a1.21 1.21 0 0 1-1.207 1.205M354.159 185.815h-99.597a1.21 1.21 0 0 1-1.206-1.206v-.236c0-.664.543-1.206 1.206-1.206h99.597a1.21 1.21 0 0 1 1.206 1.206v.236a1.21 1.21 0 0 1-1.206 1.206M365.316 207.351H271.3a1.21 1.21 0 0 1-1.207-1.205v-.236a1.21 1.21 0 0 1 1.207-1.206h94.016a1.21 1.21 0 0 1 1.207 1.206v.236a1.21 1.21 0 0 1-1.207 1.205M365.316 215.054H254.562a1.209 1.209 0 0 1-1.206-1.205v-.236c0-.663.543-1.205 1.206-1.205h110.754a1.21 1.21 0 0 1 1.207 1.205v.236a1.21 1.21 0 0 1-1.207 1.205M298.369 222.758h-43.806a1.209 1.209 0 0 1-1.206-1.206v-.236a1.21 1.21 0 0 1 1.206-1.205h43.806a1.21 1.21 0 0 1 1.207 1.205v.236a1.21 1.21 0 0 1-1.207 1.206M365.316 246.28H271.3a1.21 1.21 0 0 1-1.207-1.204v-.237a1.21 1.21 0 0 1 1.207-1.205h94.016a1.21 1.21 0 0 1 1.207 1.205v.237a1.21 1.21 0 0 1-1.207 1.205M365.316 253.984H254.562a1.21 1.21 0 0 1-1.206-1.205v-.236a1.21 1.21 0 0 1 1.206-1.206h110.754a1.21 1.21 0 0 1 1.207 1.206v.236a1.21 1.21 0 0 1-1.207 1.205M254.562 261.687a1.209 1.209 0 0 1-1.206-1.205v-.236c0-.663.543-1.205 1.206-1.205h88.439c.663 0 1.206.542 1.206 1.205v.236c0 .663-.543 1.205-1.206 1.205M365.198 287.158H209.841a1.328 1.328 0 0 1-1.325-1.323c0-.728.596-1.324 1.325-1.324h155.357c.729 0 1.325.596 1.325 1.324 0 .728-.596 1.323-1.325 1.323M292.065 294.861H209.84a1.328 1.328 0 0 1-1.324-1.323c0-.728.596-1.324 1.324-1.324h82.225c.729 0 1.325.596 1.325 1.324 0 .728-.596 1.323-1.325 1.323M292.065 310.607H209.84a1.328 1.328 0 0 1-1.324-1.324c0-.728.596-1.323 1.324-1.323h82.225c.729 0 1.325.595 1.325 1.323s-.596 1.324-1.325 1.324M356.057 302.564H209.84a1.328 1.328 0 0 1-1.325-1.323c0-.728.596-1.324 1.325-1.324h146.216c.728 0 1.325.596 1.325 1.324 0 .728-.597 1.323-1.325 1.323"/>
            <path fill="#F55D34" d="M221.852 182.364c-.533 0-1.07-.186-1.502-.564l-7.305-6.379a2.28 2.28 0 0 1-.216-3.218 2.284 2.284 0 0 1 3.221-.216l5.62 4.908 20.93-22.991c.848-.93 2.293-1 3.225-.153a2.28 2.28 0 0 1 .153 3.222l-22.437 24.645a2.278 2.278 0 0 1-1.69.746M221.852 219.307c-.533 0-1.07-.186-1.502-.564l-7.305-6.379a2.28 2.28 0 0 1-.216-3.218 2.284 2.284 0 0 1 3.221-.216l5.62 4.908 20.93-22.991c.848-.93 2.293-1 3.225-.153a2.28 2.28 0 0 1 .153 3.223L223.54 218.56a2.278 2.278 0 0 1-1.69.746M221.852 256.979a2.28 2.28 0 0 1-1.502-.563l-7.305-6.38a2.28 2.28 0 0 1-.216-3.219 2.284 2.284 0 0 1 3.221-.216l5.62 4.908 20.93-22.99c.848-.931 2.293-1 3.225-.153a2.28 2.28 0 0 1 .153 3.222l-22.437 24.645a2.278 2.278 0 0 1-1.69.746"/>
            <path fill="#97CAFF" d="M389.634 402.775l-19.484 10.811 19.447 10.866z"/>
            <path fill="#092140" d="M374.795 410.515l-4.645 3.07 4.634 3.088z"/>
            <path fill="#EF487C" d="M491.067 420.11l.022-12.808c.004-2.439 2.005-4.431 4.446-4.427l26.616.046a4.448 4.448 0 0 1 4.43 4.441l-.021 12.808a4.45 4.45 0 0 1-4.446 4.427l-26.616-.045c-2.441-.005-4.435-2.003-4.431-4.442"/>
            <path fill="#52517B" d="M389.621 410.001l107.05.101.013-7.225-107.05-.102z"/>
            <path fill="#45446C" d="M389.609 417.227l107.05.1.012-7.225-107.05-.101z"/>
            <path fill="#2C2B57" d="M389.597 424.452l107.05.101.012-7.225-107.05-.102z"/>
            <path fill="#F2F2F2" d="M493.916 424.549l.037-21.677 4.376.008-.037 21.676z"/>
            <path fill="#FFAA81" d="M314.502 227.9s18.09-10.04 21.25-12.622c3.158-2.582 4.307-4.59 3.158-13.198-1.148-8.606-2.68-17.978-3.541-19.221-.862-1.243-2.777-1.913-5.169-2.87-2.393-.955-5.935-2.868-4.595-3.251 1.34-.382 3.829.192 4.308.574.478.383 2.776.957 2.776.957s.765-2.009-.097-2.87c-.861-.86-5.838-.956-6.413-1.051-.574-.096-1.148-1.339 1.628-1.913 2.776-.573 3.542-.478 4.785 0 1.245.478 4.403 2.487 5.074 3.347.67.86.574 4.4.958 5.738.382 1.339 5.934 15.3 7.274 20.273 1.34 4.973 5.84 10.042-1.723 18.553-7.562 8.51-31.205 30.41-31.205 30.41s-6.317-5.26-6.7-11.38c-.383-6.12 8.232-11.475 8.232-11.475"/>
            <path fill="#FFD22E" d="M336.47 227.757a4.537 4.537 0 0 1-.29-.33 45.51 45.51 0 0 0-1.205-1.384c-.91-1-1.873-1.927-2.878-2.828l-.312-.262a5.904 5.904 0 0 1-.336-.23c-.474-.303-.954-.59-1.43-.889-.182-.113-.982-.468-1.073-.532a32.335 32.335 0 0 0-1.012-.303 10.23 10.23 0 0 1-.828-.28c-5.944 3.485-12.604 7.181-12.604 7.181s-8.615 5.356-8.232 11.477c.383 6.12 6.7 11.379 6.7 11.379s13.851-12.83 23.74-22.667a71.604 71.604 0 0 1-.24-.332"/>
            <path fill="#492817" d="M289.605 436.3c-.506 4.078-.978 9.742-.895 14.084 0 0 .341.134.895.36-.335 2.83-.45 5.669-.602 8.51a36.623 36.623 0 0 1-5.158-1.139c-1.307-3.08-1.882-12.957-2.012-21.039 2.491.63 5.294-.596 7.772-.776M309.174 434.814c-.843 4.022-1.93 10.982-2.207 15.317 0 0 9.483 4.677 10.584 6.58 1.1 1.902-.168 2.635-5.079 2.933-4.91.297-10.994-2.21-10.994-2.211-1.048-3.179-.8-13.069-.26-21.133 2.43.834 5.472-1.512 7.956-1.486"/>
            <path fill="#492817" d="M308.136 294.437c-2.916-.003-5.049.964-6.615 2.445-1.486-1.37-3.496-2.283-6.215-2.38-12.654-.447-17.214 8.55-16.86 18.15.039 1.068.651 75.67 3.248 124.569 1.937-.056 6.15-.11 8.09-.133.775-14.401 5.69-57.77 9.963-89.451.969 31.7 1.238 74.839 1.487 89.207 1.937.093 5.552.3 7.487.427 8.259-44.064 15.526-123.018 15.604-124.083.702-9.581-3.527-18.737-16.189-18.751"/>
            <path fill="#FFAA81" d="M298.773 299.7s-5.323-.645-11.268-2.466c.565 2.001.827 4.054.872 6.132 2.422.19 4.456.268 5.782.359 5.355.366 11.205.434 12.84.484-1.504-1.713-3.045-3.954-4.325-5.853-1.71.481-3.901 1.344-3.901 1.344"/>
            <path fill="#FFAA81" d="M292.253 303.615c-.19-1.92-.64-3.765-1.456-5.465-7.583-1.905-18.01-5.83-19.23-13.152-1.247-7.497 6.763-30.606 10.018-40.575a52.313 52.313 0 0 0-4.102-.85c-2.97-.49-6.413-.499-9.424-1.332-2.298 6.215-10.99 31.128-8.136 45.004 3.019 14.674 23.85 15.911 32.33 16.37M285.986 219.866c.035-.22.075-.442.118-.663a10.63 10.63 0 0 1-.565-1.046c-1.469-3.182-1.271-7.108.62-10.06 2.199-3.428 8.611-6.709 11.949-2.985 3.497 3.903 4.667 11.303 2.675 16.025-.353.836-.813 1.644-1.481 2.258-.749.687-1.691 1.068-2.696 1.225-.187 2.123-.643 4.393-.772 6.326-.154 2.32-.337 5.065-1.475 6.365-.939 1.07-2.086.612-3.081.113-2.256-1.133-4.672-2.463-5.938-5.905a9 9 0 0 1-.562-2.667c-.056-1.16.134-2.353.322-3.512l.886-5.474"/>
            <path fill="#492817" d="M299.092 212.213c.916-.247 1.93-.254 2.896-.384a1.642 1.642 0 0 0 1.078-.616c1.022-1.308 1.398-2.82.618-4.745-.428-1.058-1.274-1.9-1.69-2.954-.427-1.084-.299-1.692-.267-2.855.037-1.361-.13-2.481-.562-3.34a1.563 1.563 0 0 0-1.532-.835l-.009.001c-1.534.142-2.974.534-4.366 1.008a1.607 1.607 0 0 1-.78.062c-5.815-.94-13.52 1.97-15.35 5.47-.185.35-.322.72-.371 1.097a1.54 1.54 0 0 1-.377.836c-.447.494-.78 1.037-.932 1.651-.852 3.44 4.056 6.458 4.715 9.975.154.826.067 1.66.203 2.486.485 2.945 4.152 5.534 8.145 5.753 3.994.219 7.817-1.96 8.493-4.84.105-.446.138-.919-.085-1.351-.307-.592-1.037-1.009-1.562-1.516-1.67-1.61-.741-4.234 1.735-4.903"/>
            <path fill="#FFD22E" d="M317.744 252.531a53.301 53.301 0 0 0-1.834-5.617c.862-.11-2.486-11.573-4.022-17.39-4.893-.537-9.338-1.065-11.46-1.07l-.12-.051s-.205-.03-.563-.075c.182-1.047-.02-1.88-2.265-2.153-4.206-.51-11.214.35-13.381.86-1.113.262-1.023 1.004-.741 1.94-.043-.042-.084-.087-.126-.128-.16.127-.252.203-.252.203s-15.995-.685-20.364 30.592c1.673 4.04 10.393 5.318 12.418 5.48.325-.557.592-2.039.968-3.302 1.17 7.68 1.733 9.678 2.95 24.021-.766 10.92-1.13 19.258-.526 19.69 1.606 1.145 35.807.77 43.209-2.1.231-.032.466-.063.696-.097 3.824-.573 1.256-6.127 1.077-7.055-2.754-14.347-1.908-29.63-5.664-43.748"/>
            <path fill="#F4C42A" d="M322.791 301.271c-11.134-.295-22.524-4.601-30.282-12.766-7.22-7.6-11.554-17.774-15.147-27.466a116.347 116.347 0 0 1-2.38-7.143l-.199.179c1.17 7.65 2.964 17.554 4.168 31.767-.765 10.919-1.129 19.257-.525 19.689 1.606 1.145 35.807.77 43.208-2.1.232-.033.467-.063.698-.097 1.354-.203 1.904-1.032 2.045-2.058-.528.004-1.056.01-1.586-.005"/>
            <path fill="#45446C" d="M299.745 228.328c.182-1.047-.02-1.881-2.265-2.152-4.206-.51-11.215.35-13.382.86-1.044.244-1.025.914-.789 1.766 5.39 1.264 16.492-.466 16.436-.474"/>
            <path fill="#292951" d="M292.47 455.087c-.321-1.302-.983-2.49-1.638-3.66-.618-1.105-1.247-2.223-2.126-3.136.01-1.126.031-2.243.079-3.345-2.27.39-4.496.392-6.683.105.084 1.609.092 3.188.08 4.679-.298 1.388-.436 2.849-.596 4.232-.184 1.604-.455 3.61.76 4.902.903.96 2.362 1.146 3.677 1.044 1.314-.102 4.903-.09 5.334-.287.284-.13.495-.382.662-.646.716-1.134.772-2.586.451-3.888M317.551 456.71c-.782-1.351-5.796-4.104-8.633-5.584-.53-.942-1.09-1.874-1.814-2.67a93.53 93.53 0 0 1 .39-3.738c-2.295.2-4.513.018-6.67-.449-.044 1.47-.07 2.91-.07 4.277-.034.092-.073.177-.1.275-.47 1.642-.616 3.453-.81 5.14-.185 1.605-.457 3.61.76 4.903.901.96 2.361 1.146 3.675 1.044 1.314-.102 4.904-.091 5.334-.287.038-.017.07-.041.105-.062.928.1 1.86.14 2.755.085 4.91-.298 6.179-1.03 5.078-2.934"/>
            <path fill="#FFF" d="M318.816 173.096l-1.89-2.28 2.936-.408z"/>
            <path fill="#092140" d="M317.352 171.42l-.426-.605.724-.159z"/>
            <path fill="#292951" d="M341.912 179.627l-.616 1.588a.59.59 0 0 0 .336.763l3.3 1.28a.591.591 0 0 0 .764-.336l.617-1.588a.591.591 0 0 0-.336-.763l-3.3-1.28a.592.592 0 0 0-.765.336"/>
            <path fill="#8DB0DA" d="M319.165 172.2l22.957 8.938-.348.895-22.958-8.937z"/>
            <path fill="#76A2CE" d="M319.513 171.304l22.958 8.937-.349.897-22.957-8.938z"/>
            <path fill="#8DB0DA" d="M319.862 170.408l22.957 8.938-.348.896-22.958-8.938z"/>
            <path fill="#F2F2F2" d="M342.48 179.214l-1.045 2.688.543.21 1.045-2.687z"/>
            <path fill="#FFAA81" d="M332.5 175.422c.07.006.142.016.215.048 1.72.763 3.513 1.333 5.272 1.995.02.007.03.022.049.03-.1-.761-.24-1.407-.478-1.713-.67-.86-3.829-2.868-5.074-3.347-1.244-.478-2.01-.574-4.786 0s-2.202 1.817-1.627 1.913c.575.096 5.552.19 6.413 1.052.006.006.01.015.016.022M338.531 181.018c-.618-.364-1.242-.722-1.865-1.077-.695-.394-1.538-1.079-2.315-1.252-.07-.016-.12-.047-.172-.077-.857-.204-1.477-.343-1.477-.343s-2.297-.574-2.776-.957c-.479-.382-2.967-.956-4.307-.574-1.34.383 2.201 2.296 4.595 3.252 2.392.956 4.307 1.626 5.168 2.869.202.291.441 1.033.703 2.102a174.45 174.45 0 0 0 3.578-.63c-.55-1.455-.935-2.493-1.026-2.811a4.683 4.683 0 0 1-.106-.502"/>
            <path fill="#60C0FD" d="M195.15 420.315c0 7.204-10.894 13.044-24.332 13.044-13.439 0-24.332-5.84-24.332-13.044 0-7.204 10.893-13.044 24.332-13.044 13.438 0 24.332 5.84 24.332 13.044"/>
            <path fill="#52517B" d="M170.566 411.038c-12.602 0-23.25 5.757-23.25 12.572 0 6.814 10.648 12.57 23.25 12.57s23.25-5.756 23.25-12.57c0-6.815-10.648-12.572-23.25-12.572m0 29.453c-15.456 0-27.564-7.416-27.564-16.881 0-9.467 12.108-16.882 27.564-16.882s27.563 7.415 27.563 16.882c0 9.465-12.107 16.881-27.563 16.881"/>
            <path fill="#8DB0DA" d="M170.566 407.271c-12.602 0-23.25 5.757-23.25 12.572 0 6.814 10.648 12.571 23.25 12.571s23.25-5.757 23.25-12.571c0-6.815-10.648-12.572-23.25-12.572m0 29.453c-15.456 0-27.564-7.416-27.564-16.881 0-9.467 12.108-16.882 27.564-16.882s27.563 7.415 27.563 16.882c0 9.465-12.107 16.881-27.563 16.881"/>
            <path fill="#7374A4" d="M137.721 436.572l9.637-5.31s1.084-.83 3.177 1.352c1.431 1.492-.412 2.314-.412 2.314l-10.377 5.564-2.025-3.92z"/>
            <path fill="#8DB0DA" d="M145.751 442.095c1.537-1.85.583-5.175-2.132-7.428-2.716-2.253-5.278-2.253-7.7-.73l-22.68 13.583 8.926 9.025 23.586-14.45z"/>
            <path fill="#52517B" d="M120.353 448.787c2.716 2.253 3.67 5.579 2.132 7.428-1.537 1.85-4.984 1.523-7.699-.73-2.716-2.252-3.67-5.578-2.133-7.428 1.538-1.85 4.985-1.522 7.7.73"/>
            <path fill="#FFF" d="M168.234 415.814c0 1.175-2.428 2.128-5.423 2.128s-5.423-.953-5.423-2.128c0-1.176 2.428-2.127 5.423-2.127s5.423.951 5.423 2.127M158.647 418.944c0 .678-1.402 1.228-3.131 1.228-1.729 0-3.13-.55-3.13-1.228 0-.678 1.401-1.23 3.13-1.23 1.729 0 3.13.552 3.13 1.23"/>
        </g>
    </g>
</svg>
