<?xml version="1.0" encoding="UTF-8"?>
<svg version="1.1" xmlns="http://www.w3.org/2000/svg" width="512" height="512">
<path d="M0 0 C0.78761719 -0.03738281 1.57523438 -0.07476562 2.38671875 -0.11328125 C9.93660794 0.98543427 16.21859726 5.32424658 22.25 9.75 C22.97380859 10.27078125 23.69761719 10.7915625 24.44335938 11.328125 C26.73866206 12.98200604 29.02575638 14.6468113 31.3125 16.3125 C32.81324614 17.39790451 34.31454507 18.48254513 35.81640625 19.56640625 C38.07196447 21.19439909 40.32703314 22.82302702 42.57983398 24.45483398 C47.63131574 28.1117516 52.71126867 31.72537328 57.8125 35.3125 C67.46773463 42.1046047 77.02455932 49.03070213 86.58300781 55.95800781 C94.62878773 61.78712861 102.68634972 67.59577116 110.8125 73.3125 C120.46758101 80.10482824 130.0245552 87.03069915 139.58300781 93.95800781 C147.62878773 99.78712861 155.68634972 105.59577116 163.8125 111.3125 C171.93434561 117.02620051 179.98743568 122.83197472 188.02880859 128.65820312 C191.10791287 130.88869389 194.18869924 133.11684694 197.27075195 135.34326172 C198.78736966 136.43964691 200.30285084 137.53760614 201.81713867 138.63720703 C205.29716182 141.15983049 208.78933284 143.65337894 212.34375 146.0703125 C220.39319818 151.57380212 227.11827942 156.74390972 230.3125 166.3125 C231.39419947 175.00025469 230.45496385 182.12606951 225.3125 189.3125 C220.42077116 195.0417705 214.45931126 197.57982564 207.08984375 198.62890625 C194.45296833 199.31981126 185.30117887 190.95386406 175.96313477 183.57763672 C174.45978808 182.42538963 172.88851058 181.36317372 171.3125 180.3125 C170.9825 190.8725 170.6525 201.4325 170.3125 212.3125 C171.9625 212.6425 173.6125 212.9725 175.3125 213.3125 C177.51277268 215.20717925 179.01447611 216.71645221 180.3125 219.3125 C180.40662081 221.35235937 180.43440397 223.3953795 180.43275452 225.43740845 C180.43481651 227.39782326 180.43481651 227.39782326 180.43692017 229.39784241 C180.43338077 230.85458397 180.42974596 232.3113253 180.42602539 233.76806641 C180.42574345 235.29543557 180.42590139 236.82280487 180.4264679 238.35017395 C180.4267556 242.50489349 180.4208632 246.65958434 180.41389394 250.8142972 C180.40765594 255.15316403 180.40705625 259.49203147 180.40586853 263.8309021 C180.40275654 272.05088787 180.39454491 280.27086039 180.38451904 288.49084032 C180.37335383 297.84741786 180.36784642 307.20399604 180.36282361 316.56057858 C180.3523622 335.81122658 180.33476529 355.06186222 180.3125 374.3125 C181.23373657 374.28422119 181.23373657 374.28422119 182.17358398 374.25537109 C182.98126221 374.24070801 183.78894043 374.22604492 184.62109375 374.2109375 C185.82076782 374.18265869 185.82076782 374.18265869 187.04467773 374.15380859 C189.3125 374.3125 189.3125 374.3125 192.375 375.9375 C194.65457936 379.90838018 194.51432578 381.99723505 194.43359375 386.5234375 C194.41611084 387.7923584 194.39862793 389.0612793 194.38061523 390.36865234 C194.35813721 391.34012207 194.33565918 392.3115918 194.3125 393.3125 C195.17415771 393.29678955 196.03581543 393.2810791 196.92358398 393.26489258 C200.16086552 393.21336221 203.39793601 393.17595606 206.63549805 393.14770508 C208.02912328 393.13274062 209.42270244 393.11236149 210.81616211 393.08618164 C228.85580194 392.75606982 228.85580194 392.75606982 235.65234375 398.1796875 C236.17957031 398.84226562 236.70679688 399.50484375 237.25 400.1875 C238.06791016 401.17363281 238.06791016 401.17363281 238.90234375 402.1796875 C242.03882871 406.92351239 242.42038924 410.50448154 242.33642578 416.05297852 C242.20146096 431.97194198 246.08649312 446.91062301 249.89453125 462.26586914 C250.12341034 463.20499146 250.35228943 464.14411377 250.58810425 465.11169434 C251.02230005 466.88551624 251.46785092 468.6566122 251.92678833 470.42419434 C253.13027661 475.3326207 253.79383915 479.33998195 252.3125 484.3125 C249.47601433 487.41062389 247.25897903 488.56041837 243.15326023 488.81586456 C241.46759607 488.83783061 239.78155877 488.83775389 238.09584045 488.82043457 C237.16475179 488.82667453 236.23366312 488.8329145 235.27435964 488.83934355 C232.1527827 488.85530501 229.0319832 488.84265667 225.91040039 488.83007812 C223.6731165 488.83549786 221.43583617 488.84261968 219.19856262 488.85131836 C213.1200485 488.86957315 207.04180558 488.86247484 200.96328664 488.84980202 C194.60527257 488.83968435 188.24728193 488.84906439 181.88926697 488.85534668 C170.5260821 488.86309373 159.16303506 488.85065128 147.79987776 488.83030933 C137.50071992 488.81244271 127.20174246 488.81553891 116.90258789 488.83398438 C104.93942837 488.85540002 92.97637842 488.86335311 81.01319307 488.85153532 C74.68165947 488.845297 68.35025008 488.84447408 62.01872444 488.85768127 C56.06542654 488.86923164 50.11246937 488.86122847 44.1592083 488.83810425 C41.9734898 488.83281263 39.78774265 488.83433863 37.60203552 488.84315491 C34.61968358 488.85407586 31.63842533 488.84038777 28.65614319 488.82043457 C27.35677034 488.8338189 27.35677034 488.8338189 26.03114754 488.84747362 C20.67598274 488.77791657 17.5234197 487.93787622 13.3125 484.3125 C10.47541971 477.86429207 10.35461411 470.32817671 9.5859375 463.390625 C9.43232306 462.04012807 9.2782319 460.68968529 9.12368774 459.33929443 C8.80250197 456.52232408 8.48514024 453.70496034 8.17089844 450.88720703 C7.76817079 447.27634463 7.35878972 443.66627779 6.94693565 440.05644608 C6.55349955 436.60559532 6.16333692 433.15437684 5.7734375 429.703125 C5.62659515 428.4062677 5.47975281 427.1094104 5.32846069 425.77325439 C5.12792587 423.97558624 5.12792587 423.97558624 4.92333984 422.14160156 C4.74585709 420.55777679 4.74585709 420.55777679 4.56478882 418.94195557 C4.3125 416.3125 4.3125 416.3125 4.3125 413.3125 C3.44612821 413.31710896 2.57975641 413.32171793 1.68713093 413.32646656 C-19.38619675 413.43685167 -40.45947465 413.5196108 -61.53303051 413.57156086 C-71.7240302 413.59735082 -81.914837 413.63251652 -92.10571289 413.68969727 C-100.98730592 413.73950793 -109.86875927 413.77178525 -118.7504881 413.78294247 C-123.45408086 413.7894652 -128.15727399 413.80481182 -132.86073875 413.84115028 C-137.28734733 413.8750729 -141.71339143 413.88556058 -146.14011765 413.87803841 C-147.76511896 413.87941463 -149.39013903 413.8893697 -151.015028 413.90852737 C-153.23415703 413.93340916 -155.45115549 413.92742568 -157.67033386 413.91377258 C-158.91198901 413.91838155 -160.15364416 413.92299051 -161.43292522 413.92773914 C-165.58386744 413.14305226 -167.04629723 411.53007844 -169.6875 408.3125 C-171.36378968 404.95992063 -170.82004717 401.17858588 -170.80775452 397.49215698 C-170.80860894 396.5675653 -170.80946337 395.64297362 -170.81034368 394.690364 C-170.81199879 391.57334182 -170.8064766 388.45637274 -170.80102539 385.33935547 C-170.8007435 383.11248781 -170.80090129 380.88562005 -170.8014679 378.65875244 C-170.8017558 372.59707264 -170.79586027 366.53541247 -170.78889394 360.47373724 C-170.78265915 354.14493756 -170.7820565 347.81613748 -170.78086853 341.48733521 C-170.77810967 330.85955423 -170.77185578 320.23178103 -170.76293945 309.60400391 C-170.75376408 298.65608761 -170.74668386 287.70817327 -170.74243164 276.76025391 C-170.74216892 276.08571835 -170.74190619 275.4111828 -170.74163551 274.71620677 C-170.7403305 271.33234795 -170.73906678 267.94848912 -170.73782361 264.56463027 C-170.72745251 236.48058181 -170.70976131 208.39654136 -170.6875 180.3125 C-171.17105957 180.65506836 -171.65461914 180.99763672 -172.15283203 181.35058594 C-174.37212096 182.92207382 -176.59230322 184.49229504 -178.8125 186.0625 C-179.57304687 186.60132813 -180.33359375 187.14015625 -181.1171875 187.6953125 C-198.22614447 199.78957518 -198.22614447 199.78957518 -209.6875 198.3125 C-216.80568921 196.49207489 -222.36341021 193.32264071 -226.6875 187.3125 C-230.61181083 180.27901709 -232.14729424 173.52716607 -229.95703125 165.703125 C-228.06001419 160.4689065 -226.03916051 156.90734999 -221.6875 153.3125 C-221.06875 152.77882812 -220.45 152.24515625 -219.8125 151.6953125 C-213.54846266 146.45353126 -206.82635192 141.94468707 -200.06640625 137.37524414 C-194.79313131 133.79614246 -189.6363321 130.10613778 -184.5625 126.25 C-178.52436631 121.66122899 -172.39337335 117.23516725 -166.18310547 112.88256836 C-160.98501032 109.23703568 -155.82759163 105.53931573 -150.6875 101.8125 C-144.88196905 97.60545772 -139.05228 93.4365453 -133.1875 89.3125 C-124.29673428 83.05817124 -115.48916999 76.6913447 -106.6875 70.3125 C-97.18983199 63.42924383 -87.67317967 56.57865918 -78.07958984 49.82958984 C-69.89563928 44.06435476 -61.793209 38.18696007 -53.6875 32.3125 C-47.69460555 27.96926252 -41.69745291 23.63211268 -35.6875 19.3125 C-34.93484863 18.77141602 -34.18219727 18.23033203 -33.40673828 17.67285156 C-9.15785709 0.28019208 -9.15785709 0.28019208 0 0 Z " fill="#F0F1F1" transform="translate(244.6875,11.6875)"/>
<path d="M0 0 C2.38008881 -0.37473011 2.38008881 -0.37473011 5.42810059 -0.3742218 C7.15699776 -0.38474327 7.15699776 -0.38474327 8.92082214 -0.39547729 C10.19154068 -0.38783356 11.46225922 -0.38018982 12.77148438 -0.37231445 C14.11827374 -0.37474144 15.4650613 -0.37845985 16.81184387 -0.38337708 C20.47506177 -0.39280262 24.13801327 -0.38334691 27.8012104 -0.37004495 C31.62931497 -0.35875086 35.45740603 -0.36283637 39.28552246 -0.36479187 C45.71496955 -0.3656755 52.14431134 -0.3545802 58.57373047 -0.33618164 C66.0139275 -0.31501293 73.45397022 -0.31150371 80.89419127 -0.3177436 C88.04254417 -0.32343246 95.19084257 -0.31779726 102.33918762 -0.30657005 C105.38541163 -0.30191771 108.43160237 -0.30105295 111.47782898 -0.3031559 C115.06307509 -0.30503548 118.64816349 -0.29696055 122.23337364 -0.2810955 C124.18196494 -0.2748084 126.13058012 -0.2783665 128.07917786 -0.28216553 C129.23177597 -0.27508072 130.38437408 -0.26799591 131.57189941 -0.26069641 C132.5777433 -0.25864354 133.58358719 -0.25659067 134.61991119 -0.25447559 C137 0 137 0 139 2 C139.24609566 4.38567543 139.24609566 4.38567543 139.24050903 7.44155884 C139.24463303 9.17479149 139.24463303 9.17479149 139.24884033 10.94303894 C139.2380545 12.85382988 139.2380545 12.85382988 139.22705078 14.80322266 C139.22648686 16.15325411 139.22680286 17.50328617 139.22793579 18.85331726 C139.22851105 22.52462276 139.21672892 26.19579831 139.20278788 29.86707354 C139.1903092 33.70144529 139.18911228 37.53581982 139.18673706 41.37020874 C139.18051385 48.63398585 139.1640917 55.89770295 139.14403808 63.1614536 C139.1217052 71.42977438 139.11069223 79.69809798 139.10064721 87.96644139 C139.07972617 104.97766234 139.0445339 121.98882483 139 139 C140.29879341 138.99000725 140.29879341 138.99000725 141.62382507 138.97981262 C149.7896977 138.91966435 157.95549576 138.87400669 166.12153912 138.84456348 C170.31964772 138.82891747 174.51757304 138.8076988 178.71557617 138.77368164 C182.76802684 138.74104998 186.82030138 138.72313898 190.87287331 138.71536827 C192.41782211 138.70983157 193.96276143 138.69901966 195.50763512 138.68280983 C197.67416477 138.66098434 199.83996963 138.65803512 202.0065918 138.65942383 C203.23903122 138.65276199 204.47147064 138.64610016 205.74125671 138.63923645 C209.58342202 139.06458852 212.24780848 140.24780848 215 143 C216.32781878 143.20604085 217.66295895 143.3662959 219 143.5 C222.88888889 143.88888889 222.88888889 143.88888889 224 145 C225.25287572 155.9472583 222.0951418 166.0158662 215.70703125 174.89453125 C211.42253139 180.17907455 207.54901458 184.74132773 201 187 C201.01160156 187.70125 201.02320313 188.4025 201.03515625 189.125 C201.08971184 194.86113102 200.85618377 200.32778253 200 206 C204.95 206 209.9 206 215 206 C214.87625 203.628125 214.7525 201.25625 214.625 198.8125 C214.4986765 192.002647 214.4986765 192.002647 216.0546875 188.890625 C220.01166586 185.25448272 224.02733418 185.87157371 229 186 C228.99308655 184.81005338 228.99308655 184.81005338 228.98603344 183.59606743 C228.87560196 164.29157398 228.79286666 144.98714359 228.74093914 125.68240166 C228.71515974 116.34674612 228.68001431 107.01130144 228.62280273 97.67578125 C228.57295962 89.53873241 228.54070706 81.40183628 228.52955753 73.26463902 C228.52304027 68.95614983 228.5077287 64.64809752 228.47134972 60.33974838 C228.43737565 56.28329303 228.42694972 52.22745394 228.43446159 48.17086983 C228.43308766 46.68335304 228.42316294 45.19581534 228.40397263 43.70842171 C228.24888353 31.06620994 228.24888353 31.06620994 231.41047668 27.13064575 C235.17331382 24.03460375 237.13491985 23.61842509 242 24 C245.78762981 25.72164991 247.52339566 27.13548841 249 31 C249.24609566 33.91288376 249.24609566 33.91288376 249.24050903 37.36541748 C249.24463303 39.32995628 249.24463303 39.32995628 249.24884033 41.33418274 C249.24176243 42.78366181 249.23449282 44.23313995 249.22705078 45.68261719 C249.22648658 47.2102813 249.2268034 48.73794595 249.22793579 50.26560974 C249.22850997 54.41198233 249.21674516 58.55823936 249.20278788 62.70458508 C249.19029134 67.03809716 249.18911087 71.37161184 249.18673706 75.70513916 C249.18051913 83.91091114 249.16410406 92.11662987 249.14403808 100.3223784 C249.12168884 109.66448666 249.1106881 119.00659746 249.10064721 128.3487258 C249.07973811 147.56584739 249.04455603 166.78291942 249 186 C249.92123657 185.97172119 249.92123657 185.97172119 250.86108398 185.94287109 C251.66876221 185.92820801 252.47644043 185.91354492 253.30859375 185.8984375 C254.50826782 185.87015869 254.50826782 185.87015869 255.73217773 185.84130859 C258 186 258 186 261.0625 187.625 C263.34207936 191.59588018 263.20182578 193.68473505 263.12109375 198.2109375 C263.10361084 199.4798584 263.08612793 200.7487793 263.06811523 202.05615234 C263.04563721 203.02762207 263.02315918 203.9990918 263 205 C263.86165771 204.98428955 264.72331543 204.9685791 265.61108398 204.95239258 C268.84836552 204.90086221 272.08543601 204.86345606 275.32299805 204.83520508 C276.71662328 204.82024062 278.11020244 204.79986149 279.50366211 204.77368164 C297.54330194 204.44356982 297.54330194 204.44356982 304.33984375 209.8671875 C304.86707031 210.52976562 305.39429688 211.19234375 305.9375 211.875 C306.48277344 212.53242188 307.02804687 213.18984375 307.58984375 213.8671875 C310.72632871 218.61101239 311.10788924 222.19198154 311.02392578 227.74047852 C310.88896096 243.65944198 314.77399312 258.59812301 318.58203125 273.95336914 C318.81091034 274.89249146 319.03978943 275.83161377 319.27560425 276.79919434 C319.70980005 278.57301624 320.15535092 280.3441122 320.61428833 282.11169434 C321.81777661 287.0201207 322.48133915 291.02748195 321 296 C318.16351433 299.09812389 315.94647903 300.24791837 311.84076023 300.50336456 C310.15509607 300.52533061 308.46905877 300.52525389 306.78334045 300.50793457 C305.85225179 300.51417453 304.92116312 300.5204145 303.96185964 300.52684355 C300.8402827 300.54280501 297.7194832 300.53015667 294.59790039 300.51757812 C292.3606165 300.52299786 290.12333617 300.53011968 287.88606262 300.53881836 C281.8075485 300.55707315 275.72930558 300.54997484 269.65078664 300.53730202 C263.29277257 300.52718435 256.93478193 300.53656439 250.57676697 300.54284668 C239.2135821 300.55059373 227.85053506 300.53815128 216.48737776 300.51780933 C206.18821992 300.49994271 195.88924246 300.50303891 185.59008789 300.52148438 C173.62692837 300.54290002 161.66387842 300.55085311 149.70069307 300.53903532 C143.36915947 300.532797 137.03775008 300.53197408 130.70622444 300.54518127 C124.75292654 300.55673164 118.79996937 300.54872847 112.8467083 300.52560425 C110.6609898 300.52031263 108.47524265 300.52183863 106.28953552 300.53065491 C103.30718358 300.54157586 100.32592533 300.52788777 97.34364319 300.50793457 C96.04427034 300.5213189 96.04427034 300.5213189 94.71864754 300.53497362 C89.36348274 300.46541657 86.2109197 299.62537622 82 296 C79.16291971 289.55179207 79.04211411 282.01567671 78.2734375 275.078125 C78.11982306 273.72762807 77.9657319 272.37718529 77.81118774 271.02679443 C77.49000197 268.20982408 77.17264024 265.39246034 76.85839844 262.57470703 C76.45567079 258.96384463 76.04628972 255.35377779 75.63443565 251.74394608 C75.24099955 248.29309532 74.85083692 244.84187684 74.4609375 241.390625 C74.31409515 240.0937677 74.16725281 238.7969104 74.01596069 237.46075439 C73.81542587 235.66308624 73.81542587 235.66308624 73.61083984 233.82910156 C73.43335709 232.24527679 73.43335709 232.24527679 73.25228882 230.62945557 C73 228 73 228 73 225 C48.25 225 23.5 225 -2 225 C-2.04510419 196.10660576 -2.08196428 167.21323992 -2.10362434 138.31981945 C-2.10567739 135.65193365 -2.10774675 132.98404786 -2.10986328 130.31616211 C-2.1103879 129.65303256 -2.11091252 128.98990301 -2.11145304 128.30667863 C-2.12016194 117.56132702 -2.13593458 106.81599675 -2.15430559 96.07065781 C-2.17299116 85.04963346 -2.18396412 74.02862091 -2.18817699 63.00758153 C-2.19078987 56.81526139 -2.19695318 50.6229897 -2.21146011 44.43068504 C-2.22499288 38.60725307 -2.22923139 32.7838897 -2.22621536 26.9604435 C-2.22676746 24.81861117 -2.23077043 22.67677665 -2.23841095 20.53495789 C-2.24830484 17.61946718 -2.24598927 14.70423834 -2.24050903 11.78874207 C-2.24633472 10.93369007 -2.2521604 10.07863807 -2.25816262 9.19767541 C-2.23814599 5.28046838 -2.22290537 3.33435805 0 0 Z " fill="#58595B" transform="translate(176,200)"/>
<path d="M0 0 C0.78761719 -0.03738281 1.57523438 -0.07476562 2.38671875 -0.11328125 C9.93660794 0.98543427 16.21859726 5.32424658 22.25 9.75 C22.97380859 10.27078125 23.69761719 10.7915625 24.44335938 11.328125 C26.73866206 12.98200604 29.02575638 14.6468113 31.3125 16.3125 C32.81324614 17.39790451 34.31454507 18.48254513 35.81640625 19.56640625 C38.07196447 21.19439909 40.32703314 22.82302702 42.57983398 24.45483398 C47.63131574 28.1117516 52.71126867 31.72537328 57.8125 35.3125 C67.46773463 42.1046047 77.02455932 49.03070213 86.58300781 55.95800781 C94.62878773 61.78712861 102.68634972 67.59577116 110.8125 73.3125 C120.46758101 80.10482824 130.0245552 87.03069915 139.58300781 93.95800781 C147.62878773 99.78712861 155.68634972 105.59577116 163.8125 111.3125 C171.93434561 117.02620051 179.98743568 122.83197472 188.02880859 128.65820312 C191.10791287 130.88869389 194.18869924 133.11684694 197.27075195 135.34326172 C198.78736966 136.43964691 200.30285084 137.53760614 201.81713867 138.63720703 C205.29716182 141.15983049 208.78933284 143.65337894 212.34375 146.0703125 C220.39319818 151.57380212 227.11827942 156.74390972 230.3125 166.3125 C231.39419947 175.00025469 230.45496385 182.12606951 225.3125 189.3125 C220.42077116 195.0417705 214.45931126 197.57982564 207.08984375 198.62890625 C194.62962858 199.31015258 185.78888146 191.22892566 176.54248047 184.03173828 C172.71973866 181.08453576 168.82801717 178.23178184 164.9375 175.375 C164.14174561 174.78944336 163.34599121 174.20388672 162.52612305 173.60058594 C150.67218849 164.88766263 138.73646892 156.29433106 126.7043457 147.8293457 C117.75626908 141.52612258 108.90435913 135.08982587 100.04199219 128.66699219 C91.30103205 122.33421736 82.53629766 116.04059656 73.70678711 109.83178711 C67.78270892 105.65994926 61.91009925 101.41936623 56.04296875 97.16796875 C50.29950078 93.01164219 44.51571129 88.91570058 38.71582031 84.83862305 C34.2456892 81.69119068 29.80212631 78.50958385 25.37548828 75.30126953 C22.38897821 73.13688509 19.39600306 70.98152107 16.40332031 68.82568359 C14.40473886 67.37925577 12.41690764 65.91900626 10.4296875 64.45703125 C9.26609515 63.61653623 8.10206251 62.77665028 6.9375 61.9375 C5.93976563 61.20789063 4.94203125 60.47828125 3.9140625 59.7265625 C1.51372869 58.08833185 1.51372869 58.08833185 -0.6328125 58.58251953 C-2.78088938 59.34567897 -4.31648298 60.24935448 -6.1640625 61.578125 C-7.15599609 62.28485352 -7.15599609 62.28485352 -8.16796875 63.00585938 C-9.22951172 63.77639648 -9.22951172 63.77639648 -10.3125 64.5625 C-11.43205078 65.36397461 -11.43205078 65.36397461 -12.57421875 66.18164062 C-14.95018261 67.88527414 -17.31945692 69.59787758 -19.6875 71.3125 C-21.1952257 72.40116189 -22.70303676 73.48970557 -24.2109375 74.578125 C-26.45948008 76.20209968 -28.70739547 77.82691254 -30.95361328 79.45410156 C-36.00563744 83.11107443 -41.08588169 86.72510116 -46.1875 90.3125 C-55.07826572 96.56682876 -63.88583001 102.9336553 -72.6875 109.3125 C-82.18516801 116.19575617 -91.70182033 123.04634082 -101.29541016 129.79541016 C-109.47936072 135.56064524 -117.581791 141.43803993 -125.6875 147.3125 C-135.36844888 154.32858554 -145.06001011 161.32446131 -154.85571289 168.17993164 C-158.99434928 171.08422885 -163.03505756 174.08155164 -167.01904297 177.19555664 C-168.6875 178.3125 -168.6875 178.3125 -170.6875 178.3125 C-170.6875 178.9725 -170.6875 179.6325 -170.6875 180.3125 C-172.15283203 181.57763672 -172.15283203 181.57763672 -174.1953125 182.9921875 C-174.93523437 183.50910156 -175.67515625 184.02601563 -176.4375 184.55859375 C-177.22125 185.09613281 -178.005 185.63367188 -178.8125 186.1875 C-179.57304687 186.71730469 -180.33359375 187.24710938 -181.1171875 187.79296875 C-183.3003397 189.30988312 -185.492314 190.81307153 -187.6875 192.3125 C-188.27394287 192.71855469 -188.86038574 193.12460938 -189.46459961 193.54296875 C-195.72105578 197.82221749 -202.20474274 199.27683576 -209.6875 198.3125 C-216.80568921 196.49207489 -222.36341021 193.32264071 -226.6875 187.3125 C-230.61181083 180.27901709 -232.14729424 173.52716607 -229.95703125 165.703125 C-228.06001419 160.4689065 -226.03916051 156.90734999 -221.6875 153.3125 C-221.06875 152.77882812 -220.45 152.24515625 -219.8125 151.6953125 C-213.54846266 146.45353126 -206.82635192 141.94468707 -200.06640625 137.37524414 C-194.79313131 133.79614246 -189.6363321 130.10613778 -184.5625 126.25 C-178.52436631 121.66122899 -172.39337335 117.23516725 -166.18310547 112.88256836 C-160.98501032 109.23703568 -155.82759163 105.53931573 -150.6875 101.8125 C-144.88196905 97.60545772 -139.05228 93.4365453 -133.1875 89.3125 C-124.29673428 83.05817124 -115.48916999 76.6913447 -106.6875 70.3125 C-97.18983199 63.42924383 -87.67317967 56.57865918 -78.07958984 49.82958984 C-69.89563928 44.06435476 -61.793209 38.18696007 -53.6875 32.3125 C-47.69460555 27.96926252 -41.69745291 23.63211268 -35.6875 19.3125 C-34.93484863 18.77141602 -34.18219727 18.23033203 -33.40673828 17.67285156 C-9.15785709 0.28019208 -9.15785709 0.28019208 0 0 Z " fill="#367CE1" transform="translate(244.6875,11.6875)"/>
<path d="M0 0 C3.78762981 1.72164991 5.52339566 3.13548841 7 7 C7.24609566 9.91288376 7.24609566 9.91288376 7.24050903 13.36541748 C7.24325836 14.67511002 7.24600769 15.98480255 7.24884033 17.33418274 C7.24176243 18.78366181 7.23449282 20.23313995 7.22705078 21.68261719 C7.22648658 23.2102813 7.2268034 24.73794595 7.22793579 26.26560974 C7.22850997 30.41198233 7.21674516 34.55823936 7.20278788 38.70458508 C7.19029134 43.03809716 7.18911087 47.37161184 7.18673706 51.70513916 C7.18051913 59.91091114 7.16410406 68.11662987 7.14403808 76.3223784 C7.12168884 85.66448666 7.1106881 95.00659746 7.10064721 104.3487258 C7.07973811 123.56584739 7.04455603 142.78291942 7 162 C7.92123657 161.97172119 7.92123657 161.97172119 8.86108398 161.94287109 C9.66876221 161.92820801 10.47644043 161.91354492 11.30859375 161.8984375 C12.50826782 161.87015869 12.50826782 161.87015869 13.73217773 161.84130859 C16 162 16 162 19.0625 163.625 C21.34207936 167.59588018 21.20182578 169.68473505 21.12109375 174.2109375 C21.10361084 175.4798584 21.08612793 176.7487793 21.06811523 178.05615234 C21.03439819 179.51335693 21.03439819 179.51335693 21 181 C21.86165771 180.98428955 22.72331543 180.9685791 23.61108398 180.95239258 C26.84836552 180.90086221 30.08543601 180.86345606 33.32299805 180.83520508 C34.71662328 180.82024062 36.11020244 180.79986149 37.50366211 180.77368164 C55.54330194 180.44356982 55.54330194 180.44356982 62.33984375 185.8671875 C62.86707031 186.52976562 63.39429688 187.19234375 63.9375 187.875 C64.48277344 188.53242188 65.02804687 189.18984375 65.58984375 189.8671875 C68.72632871 194.61101239 69.10788924 198.19198154 69.02392578 203.74047852 C68.88896096 219.65944198 72.77399312 234.59812301 76.58203125 249.95336914 C76.81091034 250.89249146 77.03978943 251.83161377 77.27560425 252.79919434 C77.70980005 254.57301624 78.15535092 256.3441122 78.61428833 258.11169434 C79.81777661 263.0201207 80.48133915 267.02748195 79 272 C76.36660161 274.64282986 74.70175018 275.88250322 70.99365234 276.50336456 C69.86910645 276.50487267 68.74456055 276.50638077 67.5859375 276.50793457 C66.29051025 276.51921387 64.99508301 276.53049316 63.66040039 276.54211426 C62.23193135 276.53433767 60.80346452 276.52614503 59.375 276.51757812 C57.86514613 276.52300043 56.35529756 276.5301237 54.84545898 276.53881836 C50.75037648 276.55704202 46.6556974 276.54998831 42.56060791 276.53730202 C38.27346719 276.52716933 33.98636083 276.53656844 29.69921875 276.54284668 C22.49993696 276.55012231 15.30081936 276.54053764 8.1015625 276.52148438 C-0.21975359 276.49971572 -8.54067766 276.50676716 -16.86198425 276.52879 C-24.00863499 276.54694644 -31.15516776 276.54950114 -38.30183411 276.53903532 C-42.5692894 276.53280171 -46.83656047 276.53196104 -51.10400391 276.54518127 C-55.11622452 276.55674279 -59.1279401 276.54870898 -63.1401062 276.52560425 C-64.61187909 276.5203187 -66.08369453 276.52182837 -67.55545044 276.53065491 C-69.56559727 276.54159815 -71.57583707 276.52543653 -73.5859375 276.50793457 C-74.7104834 276.50642647 -75.8350293 276.50491837 -76.99365234 276.50336456 C-80.70560078 275.8818585 -82.3710939 274.65454629 -85 272 C-86.34024122 267.02269195 -85.88853523 263.1638813 -84.671875 258.2109375 C-84.36636719 256.93863281 -84.06085938 255.66632813 -83.74609375 254.35546875 C-83.41444559 253.02855002 -83.08241295 251.70172734 -82.75 250.375 C-82.43241625 249.07190099 -82.11600155 247.76851649 -81.80078125 246.46484375 C-79.23855186 235.90760814 -79.23855186 235.90760814 -78.10888672 231.60961914 C-75.8697008 222.76423463 -75.58535216 214.40009349 -75.6484375 205.31054688 C-75.52837726 196.86130748 -74.07460343 192.28444927 -68.28393555 186.19555664 C-61.11197783 180.19571074 -52.22403493 181.33560403 -43.4375 181.625 C-41.84054524 181.65514651 -40.24353548 181.68251404 -38.64648438 181.70703125 C-34.76294725 181.77263893 -30.88208987 181.87589023 -27 182 C-27.02900391 180.95706787 -27.05800781 179.91413574 -27.08789062 178.83959961 C-27.1113432 177.46469219 -27.13409287 176.08977266 -27.15625 174.71484375 C-27.17719727 174.02821655 -27.19814453 173.34158936 -27.21972656 172.63415527 C-27.25441056 169.76838999 -27.24424593 167.4934753 -25.95898438 164.89672852 C-21.98515231 161.26269367 -17.98667365 161.87121194 -13 162 C-13.00460896 161.20670225 -13.00921793 160.4134045 -13.01396656 159.59606743 C-13.12439804 140.29157398 -13.20713334 120.98714359 -13.25906086 101.68240166 C-13.28484026 92.34674612 -13.31998569 83.01130144 -13.37719727 73.67578125 C-13.42704038 65.53873241 -13.45929294 57.40183628 -13.47044247 49.26463902 C-13.47695973 44.95614983 -13.4922713 40.64809752 -13.52865028 36.33974838 C-13.56262435 32.28329303 -13.57305028 28.22745394 -13.56553841 24.17086983 C-13.56691234 22.68335304 -13.57683706 21.19581534 -13.59602737 19.70842171 C-13.75111647 7.06620994 -13.75111647 7.06620994 -10.58952332 3.13064575 C-6.82668618 0.03460375 -4.86508015 -0.38157491 0 0 Z " fill="#8B3F0A" transform="translate(418,224)"/>
<path d="M0 0 C0.99 0.33 1.98 0.66 3 1 C4.0625 3.80078125 4.0625 3.80078125 5 7.3125 C6.14974302 11.59050214 7.22626376 14.5564695 10 18 C10 18.66 10 19.32 10 20 C15.52450249 22.86455685 19.66283262 24.09469037 26 25 C26 18.4 26 11.8 26 5 C31.93545672 8.91412992 37.75690496 12.93506903 43.5 17.125 C49.47035875 21.45984832 55.46357483 25.75763455 61.5 30 C65.82496437 33.04226769 70.1420382 36.09431246 74.43359375 39.18359375 C75.17625488 39.71686279 75.91891602 40.25013184 76.68408203 40.79956055 C78.18673893 41.89179513 79.67873809 42.99884412 81.15966797 44.12036133 C85.02786948 47.02214632 88.75847304 49.44731831 93.13671875 51.515625 C98.43395276 54.22982583 103.04784168 56.64823681 106 62 C108.21336711 73.14788056 107.10106927 84.76438798 106 96 C105.071875 96.4125 104.14375 96.825 103.1875 97.25 C99.95554338 99.02440756 98.80766668 99.87955492 97 103 C96.54186686 105.99366206 96.54186686 105.99366206 96.60127258 109.36541748 C96.58246536 111.32995628 96.58246536 111.32995628 96.5632782 113.33418274 C96.56445224 114.78366114 96.56591138 116.23313933 96.56762695 117.68261719 C96.55861003 119.21028945 96.54828297 120.73795446 96.53674316 122.26560974 C96.50913871 126.4119539 96.499884 130.55816092 96.49388909 134.70458508 C96.48451437 139.03815851 96.45831173 143.37162914 96.43388367 147.70513916 C96.39019012 155.91086521 96.36166071 164.11657135 96.33856028 172.3223784 C96.3115239 181.66455319 96.26761145 191.0066247 96.22227156 200.3487258 C96.1293844 219.5657627 96.05772232 238.78282692 96 258 C95.31292969 258.10957031 94.62585938 258.21914063 93.91796875 258.33203125 C92.56638672 258.56986328 92.56638672 258.56986328 91.1875 258.8125 C90.29417969 258.96332031 89.40085937 259.11414063 88.48046875 259.26953125 C85.75809602 260.07123786 84.66560925 260.72565383 83 263 C82.62118216 265.64594138 82.39980435 268.03700773 82.3125 270.6875 C82.209375 273.100625 82.10625 275.51375 82 278 C77.05 278 72.1 278 67 278 C66.72834822 260.85198164 66.72834822 260.85198164 69.56640625 256.71875 C71.5625 255.375 71.5625 255.375 73.7421875 254.21875 C82.78058288 249.33989298 86.71639201 239.29327301 89.625 230.00390625 C90.11367267 227.39256165 90.09410004 224.90440316 90.0625 222.25 C90.05347656 221.26515625 90.04445313 220.2803125 90.03515625 219.265625 C90.02355469 218.51796875 90.01195312 217.7703125 90 217 C88.1128125 216.8453125 88.1128125 216.8453125 86.1875 216.6875 C82.29683687 216.36859319 82.03300139 216.03300139 79 213 C74.71 212.34 70.42 211.68 66 211 C65.67 172.06 65.34 133.12 65 93 C60.72273734 101.2660474 60.72273734 101.2660474 58.1875 109.625 C57.95417969 110.64851563 57.72085938 111.67203125 57.48046875 112.7265625 C57.32191406 113.47679687 57.16335938 114.22703125 57 115 C55.68 115.33 54.36 115.66 53 116 C52.70867187 114.7934375 52.41734375 113.586875 52.1171875 112.34375 C49.55021467 102.15138918 47.41315637 93.7590301 38.625 87.25 C32.41436243 83.65757239 24.94048745 82.50770298 18 81 C17.67 79.68 17.34 78.36 17 77 C19.64 76.01 22.28 75.02 25 74 C25.33 59.81 25.66 45.62 26 31 C15.44895383 33.39035013 15.44895383 33.39035013 8 40 C5.52872027 45.14661009 4.03314478 50.3987347 3 56 C1.68 55.67 0.36 55.34 -1 55 C-1.15855469 54.21496094 -1.31710937 53.42992187 -1.48046875 52.62109375 C-3.07437507 45.44411226 -4.49259648 39.12657969 -10.78515625 34.76171875 C-15.5904308 32.13458058 -20.63747116 30.94340785 -26 30 C-26 28.68 -26 27.36 -26 26 C-25.20335937 25.82984375 -24.40671875 25.6596875 -23.5859375 25.484375 C-16.27756858 23.81287457 -10.8895743 22.30237063 -5.8125 16.5 C-3.62350805 12.27298106 -2.63307142 8.14350313 -1.61328125 3.51171875 C-1 1 -1 1 0 0 Z " fill="#D0D2D3" transform="translate(309,128)"/>
<path d="M0 0 C0.85271484 0.30744141 0.85271484 0.30744141 1.72265625 0.62109375 C2.88087891 1.02521484 2.88087891 1.02521484 4.0625 1.4375 C5.19365234 1.83775391 5.19365234 1.83775391 6.34765625 2.24609375 C12.78984322 4.07723084 19.20987631 4.14861585 25.84741211 4.14526367 C26.81094101 4.14862228 27.77446991 4.1519809 28.76719666 4.15544128 C31.93725897 4.1649034 35.10726821 4.16689186 38.27734375 4.16796875 C40.49019899 4.17118409 42.70305402 4.17454838 44.91590881 4.17805481 C49.54835503 4.18403384 54.18078262 4.18589592 58.81323242 4.18530273 C64.73903473 4.18520106 70.66471736 4.19886417 76.59049129 4.21607494 C81.15878342 4.22721015 85.72704672 4.22922149 90.29535103 4.22869301 C92.47974625 4.2298704 94.66414229 4.23427866 96.84852409 4.24202538 C99.90683187 4.25185799 102.96488114 4.24893447 106.02319336 4.24291992 C107.36616486 4.25134918 107.36616486 4.25134918 108.73626709 4.25994873 C114.16318875 4.23292362 118.78496398 3.51722425 124 2 C124.763125 1.79117187 125.52625 1.58234375 126.3125 1.3671875 C126.869375 1.20476562 127.42625 1.04234375 128 0.875 C128.99 0.58625 129.98 0.2975 131 0 C131.0276619 1.49988961 131.0466861 2.99993869 131.0625 4.5 C131.07410156 5.3353125 131.08570313 6.170625 131.09765625 7.03125 C130.97572095 10.73808324 130.49865131 14.32490057 130 18 C128.09927734 18.00386719 128.09927734 18.00386719 126.16015625 18.0078125 C114.22347315 18.01783478 114.22347315 18.01783478 103.69140625 23.0390625 C97.77904625 29.89357687 97.55369587 35.07253837 97.625 43.875 C97.44275853 56.55828819 95.0734979 67.94862105 91.76660156 80.14355469 C90.61055937 84.45110044 89.56718631 88.7800165 88.5625 93.125 C88.38678467 93.82882812 88.21106934 94.53265625 88.0300293 95.2578125 C86.9764765 99.8026806 86.82218379 103.47327779 88 108 C89.98502267 110.18628278 89.98502267 110.18628278 92 112 C82.45528816 112.09278251 72.91073217 112.16380665 63.36566734 112.20724869 C58.93323178 112.22810139 54.50110533 112.25637633 50.06884766 112.30175781 C45.78944496 112.34529877 41.51033912 112.36915454 37.23073196 112.37950897 C35.60006667 112.38688559 33.96941716 112.4012906 32.33887863 112.42292023 C30.05027223 112.45206509 27.76288396 112.45595156 25.47412109 112.45410156 C23.52220352 112.46742523 23.52220352 112.46742523 21.53085327 112.48101807 C17.36888344 111.91402122 15.22082734 110.65445029 12 108 C9.21268707 101.63244553 9.06728275 94.2423731 8.30859375 87.39453125 C8.15737142 86.06559537 8.00567505 84.73671335 7.85353088 83.40788269 C7.5365335 80.62867861 7.22337537 77.8490799 6.91333008 75.0690918 C6.51968199 71.53982612 6.1194123 68.01135507 5.71656704 64.48312855 C5.32819713 61.07886474 4.94331168 57.67420935 4.55859375 54.26953125 C4.41691269 53.01912552 4.27523163 51.76871979 4.1292572 50.48042297 C3.39023604 43.85557938 2.7347131 37.2338656 2.21621704 30.58796692 C1.88900446 26.67146097 1.40948965 22.77613892 0.9375 18.875 C0.19743344 12.53976353 -0.20605921 6.38783563 0 0 Z " fill="#377CE1" transform="translate(246,388)"/>
<path d="M0 0 C47.52 0 95.04 0 144 0 C146.57413308 9.65299906 149.11110805 19.26336001 151.34741211 28.99169922 C151.66107691 30.3461384 151.98021373 31.69932047 152.30444336 33.05126953 C152.78407443 35.05239828 153.24725476 37.05672842 153.70703125 39.0625 C154.11659058 40.81240234 154.11659058 40.81240234 154.53442383 42.59765625 C155.0607554 46.44398911 155.01151564 49.24475856 154 53 C151.3710225 55.65408018 149.70537431 56.88189642 145.99365234 57.50336456 C144.86910645 57.50487267 143.74456055 57.50638077 142.5859375 57.50793457 C141.29051025 57.51921387 139.99508301 57.53049316 138.66040039 57.54211426 C137.23193135 57.53433767 135.80346452 57.52614503 134.375 57.51757812 C132.86514613 57.52300043 131.35529756 57.5301237 129.84545898 57.53881836 C125.75037648 57.55704202 121.6556974 57.54998831 117.56060791 57.53730202 C113.27346719 57.52716933 108.98636083 57.53656844 104.69921875 57.54284668 C97.49993696 57.55012231 90.30081936 57.54053764 83.1015625 57.52148438 C74.78024641 57.49971572 66.45932234 57.50676716 58.13801575 57.52879 C50.99136501 57.54694644 43.84483224 57.54950114 36.69816589 57.53903532 C32.4307106 57.53280171 28.16343953 57.53196104 23.89599609 57.54518127 C19.88377548 57.55674279 15.8720599 57.54870898 11.8598938 57.52560425 C10.38812091 57.5203187 8.91630547 57.52182837 7.44454956 57.53065491 C5.43440273 57.54159815 3.42416293 57.52543653 1.4140625 57.50793457 C0.2895166 57.50642647 -0.8350293 57.50491837 -1.99365234 57.50336456 C-5.70575351 56.88183293 -7.37128514 55.65502491 -10 53 C-11.3233368 48.06361738 -10.90669834 44.23012089 -9.70703125 39.31640625 C-9.40603516 38.05763672 -9.10503906 36.79886719 -8.79492188 35.50195312 C-8.46771673 34.18873508 -8.1402424 32.87558407 -7.8125 31.5625 C-7.50763672 30.29728516 -7.20277344 29.03207031 -6.88867188 27.72851562 C-4.64852077 18.47204218 -2.30978883 9.23915533 0 0 Z " fill="#F99B19" transform="translate(343,443)"/>
<path d="M0 0 C1.24081833 -0.00571014 2.48163666 -0.01142029 3.76005554 -0.01730347 C5.14274587 -0.01854889 6.52543631 -0.01967397 7.90812683 -0.02069092 C9.35842007 -0.02531819 10.80871209 -0.03034272 12.25900269 -0.03573608 C16.20537464 -0.04887166 20.15172957 -0.05530739 24.09811997 -0.05974674 C26.56291004 -0.06267585 29.02769542 -0.06678037 31.49248314 -0.07125092 C39.20198795 -0.08492944 46.9114821 -0.09459412 54.6209982 -0.09845281 C63.52452481 -0.10293336 72.42789789 -0.1204796 81.3313778 -0.1494534 C88.21042344 -0.1710631 95.08942586 -0.18115672 101.96850508 -0.18249393 C106.07838601 -0.18354255 110.18812268 -0.18946232 114.29796791 -0.20731354 C118.16476171 -0.2237818 122.03130263 -0.22595589 125.89811897 -0.21717453 C127.31669034 -0.21640346 128.73527522 -0.22075616 130.15381241 -0.23063278 C132.09183955 -0.24333398 134.02996808 -0.23569041 135.96801758 -0.22705078 C137.05221387 -0.22851734 138.13641016 -0.2299839 139.25346088 -0.2314949 C142.62031682 0.1972102 144.464428 1.12399964 147.17448425 3.14044189 C150.05588054 7.46253633 149.73665079 11.06688886 149.17448425 16.14044189 C146.64987908 26.49706083 141.02030214 35.1059467 132.17448425 41.14044189 C126.57555945 44.11071895 121.23014249 46.25093886 114.84375 46.28761292 C113.98459991 46.29476822 113.12544983 46.30192352 112.24026489 46.30929565 C111.30565933 46.31198456 110.37105377 46.31467346 109.40812683 46.31744385 C108.41738159 46.32401505 107.42663635 46.33058624 106.40586853 46.33735657 C103.12691673 46.35706739 99.84801069 46.36874775 96.5690155 46.37872314 C95.44756323 46.38279867 94.32611095 46.3868742 93.17067528 46.39107323 C87.23403991 46.41192526 81.2974276 46.42623033 75.36076355 46.43560791 C69.23868319 46.44666592 63.11696692 46.48106172 56.99501514 46.52077961 C52.27912739 46.54696431 47.56332611 46.55530146 42.84737206 46.55888939 C40.5912143 46.56375109 38.3350603 46.57535312 36.07897377 46.59392738 C32.9149631 46.61835586 29.75189105 46.61734661 26.58781433 46.6104126 C25.66332993 46.62322266 24.73884552 46.63603271 23.78634644 46.64923096 C17.38378374 46.59831969 12.83435469 45.03922958 7.17448425 42.14044189 C5.47292175 41.45981689 5.47292175 41.45981689 3.73698425 40.76544189 C-1.22838695 35.67896407 -0.7871331 27.52579154 -0.86457825 20.69512939 C-0.85168762 19.85208252 -0.838797 19.00903564 -0.82551575 18.14044189 C-1.91864075 18.03731689 -3.01176575 17.93419189 -4.13801575 17.82794189 C-7.82551575 17.14044189 -7.82551575 17.14044189 -9.70051575 16.07794189 C-11.52558359 12.9347695 -12.07665226 9.71913717 -11.82551575 6.14044189 C-8.4756219 0.71130359 -6.12856432 0.01683224 0 0 Z " fill="#377CE1" transform="translate(242.8255157470703,338.85955810546875)"/>
<path d="M0 0 C2.27592827 0.85461997 4.04017609 1.91492954 6.04345703 3.29272461 C6.8054541 3.81423096 7.56745117 4.3357373 8.35253906 4.87304688 C9.16319824 5.43822021 9.97385742 6.00339355 10.80908203 6.58569336 C12.07727783 7.46149048 12.07727783 7.46149048 13.37109375 8.35498047 C19.3983807 12.54490063 25.29800205 16.88359021 31.14257812 21.32348633 C36.53073572 25.40915967 42.02649849 29.32241565 47.56347656 33.203125 C52.76157171 36.84865768 57.9189904 40.54637762 63.05908203 44.27319336 C68.86461299 48.48023564 74.69430203 52.64914806 80.55908203 56.77319336 C90.21431666 63.56529806 99.77114136 70.49139549 109.32958984 77.41870117 C117.37536977 83.24782197 125.43293175 89.05646452 133.55908203 94.77319336 C143.99113752 102.11212144 154.31572185 109.59872347 164.63330078 117.09741211 C171.98786367 122.43731722 179.36217516 127.75011571 186.80908203 132.96069336 C187.45248535 133.41847168 188.09588867 133.87625 188.75878906 134.34790039 C195.46648681 138.99878361 201.89152728 140.92625991 210.05908203 139.77319336 C217.80340936 137.22212083 223.43470989 132.80028459 227.21533203 125.55834961 C227.49376953 124.96924805 227.77220703 124.38014648 228.05908203 123.77319336 C228.71908203 123.77319336 229.37908203 123.77319336 230.05908203 123.77319336 C230.78883525 133.21133505 229.75333816 140.26355775 223.48486328 147.62084961 C218.20097759 152.63376681 211.83102323 154.81652638 204.62158203 155.21069336 C193.11593919 154.63738813 184.97688738 147.25483613 176.2890625 140.49243164 C172.46632069 137.54522912 168.5745992 134.6924752 164.68408203 131.83569336 C163.88832764 131.25013672 163.09257324 130.66458008 162.27270508 130.0612793 C150.41877053 121.34835599 138.48305095 112.75502442 126.45092773 104.29003906 C117.50285111 97.98681594 108.65094116 91.55051923 99.78857422 85.12768555 C91.04761408 78.79491072 82.2828797 72.50128992 73.45336914 66.29248047 C67.52929095 62.12064262 61.65668128 57.88005959 55.78955078 53.62866211 C50.04608281 49.47233555 44.26229332 45.37639394 38.46240234 41.29931641 C33.99227124 38.15188404 29.54870834 34.97027721 25.12207031 31.76196289 C22.13556024 29.59757845 19.14258509 27.44221443 16.14990234 25.28637695 C14.15132089 23.83994913 12.16348968 22.37969962 10.17626953 20.91772461 C9.01267718 20.07722959 7.84864454 19.23734364 6.68408203 18.39819336 C5.18748047 17.3037793 5.18748047 17.3037793 3.66064453 16.18725586 C1.26031072 14.54902521 1.26031072 14.54902521 -0.88623047 15.04321289 C-3.03430735 15.80637233 -4.56990095 16.71004784 -6.41748047 18.03881836 C-7.40941406 18.74554688 -7.40941406 18.74554688 -8.42138672 19.46655273 C-9.12908203 19.98024414 -9.83677734 20.49393555 -10.56591797 21.02319336 C-11.68546875 21.82466797 -11.68546875 21.82466797 -12.82763672 22.64233398 C-15.20360058 24.3459675 -17.57287489 26.05857094 -19.94091797 27.77319336 C-21.44864366 28.86185525 -22.95645473 29.95039893 -24.46435547 31.03881836 C-26.71289805 32.66279304 -28.96081344 34.28760589 -31.20703125 35.91479492 C-36.25905541 39.57176779 -41.33929966 43.18579451 -46.44091797 46.77319336 C-55.33168369 53.02752212 -64.13924798 59.39434866 -72.94091797 65.77319336 C-82.43858598 72.65644953 -91.9552383 79.50703418 -101.54882812 86.25610352 C-109.73277869 92.0213386 -117.83520897 97.89873329 -125.94091797 103.77319336 C-135.62186685 110.7892789 -145.31342808 117.78515467 -155.10913086 124.640625 C-159.24776724 127.54492221 -163.28847552 130.542245 -167.27246094 133.65625 C-168.94091797 134.77319336 -168.94091797 134.77319336 -170.94091797 134.77319336 C-170.94091797 135.43319336 -170.94091797 136.09319336 -170.94091797 136.77319336 C-172.40625 138.03833008 -172.40625 138.03833008 -174.44873047 139.45288086 C-175.18865234 139.96979492 -175.92857422 140.48670898 -176.69091797 141.01928711 C-177.47466797 141.55682617 -178.25841797 142.09436523 -179.06591797 142.64819336 C-179.82646484 143.17799805 -180.58701172 143.70780273 -181.37060547 144.25366211 C-183.55375767 145.77057648 -185.74573197 147.27376489 -187.94091797 148.77319336 C-188.52736084 149.17924805 -189.11380371 149.58530273 -189.71801758 150.00366211 C-195.97447375 154.28291085 -202.45816071 155.73752912 -209.94091797 154.77319336 C-217.05910718 152.95276825 -222.61682818 149.78333407 -226.94091797 143.77319336 C-230.48639233 137.41869332 -231.40578267 131.97859626 -230.94091797 124.77319336 C-229.95091797 124.77319336 -228.96091797 124.77319336 -227.94091797 124.77319336 C-226.80029297 126.34741211 -226.80029297 126.34741211 -225.69091797 128.46069336 C-222.1829954 134.43050135 -217.43601553 137.54324232 -210.94091797 139.77319336 C-195.96294685 141.95891879 -185.56230526 131.8089167 -174.27246094 123.47973633 C-170.6960908 120.86205808 -167.06995772 118.31708322 -163.44091797 115.77319336 C-156.74233773 111.0639121 -150.09282641 106.29001378 -143.46044922 101.48803711 C-138.40850362 97.830639 -133.34134875 94.19571601 -128.26171875 90.5769043 C-123.53480399 87.20575034 -118.83110357 83.80303387 -114.12841797 80.39819336 C-108.25960394 76.15076355 -102.3666739 71.94079584 -96.44091797 67.77319336 C-87.55020496 61.51878795 -78.74258934 55.15203906 -69.94091797 48.77319336 C-61.13924293 42.394345 -52.3314893 36.02780454 -43.44091797 29.77319336 C-37.53995824 25.62119939 -31.66610053 21.43395375 -25.81591797 17.21069336 C-25.07196777 16.67557129 -24.32801758 16.14044922 -23.56152344 15.58911133 C-19.87502422 12.92937519 -16.22092578 10.23771536 -12.61279297 7.47241211 C-11.92975098 6.95428955 -11.24670898 6.43616699 -10.54296875 5.90234375 C-9.25704405 4.92400564 -7.97885561 3.93538559 -6.70996094 2.93505859 C-2.45592322 -0.28698776 -2.45592322 -0.28698776 0 0 Z " fill="#2367D3" transform="translate(244.94091796875,55.226806640625)"/>
<path d="M0 0 C0.83901352 0.00247742 1.67802704 0.00495483 2.54246521 0.00750732 C3.42551331 0.00239639 4.3085614 -0.00271454 5.21836853 -0.00798035 C8.14751396 -0.02191996 11.07642525 -0.02091629 14.00559998 -0.01861572 C16.03579802 -0.0225003 18.06599524 -0.02683447 20.09619141 -0.03160095 C24.35581596 -0.0390726 28.61535764 -0.03876508 32.87498474 -0.0335083 C38.34077358 -0.02771288 43.80622364 -0.04464192 49.27195644 -0.06785297 C53.4660542 -0.08256621 57.66006993 -0.0834653 61.85418892 -0.08034325 C63.86967197 -0.08085769 65.88515947 -0.08611835 67.9006176 -0.09615517 C70.71635488 -0.1084554 73.53142654 -0.10176654 76.34715271 -0.09014893 C77.184142 -0.09779266 78.02113129 -0.1054364 78.88348389 -0.11331177 C84.57719586 -0.06123673 84.57719586 -0.06123673 86.72374344 1.64385605 C88.62346726 4.06447016 88.38367247 5.96072824 88.38182068 9.00701904 C88.39116386 10.76883263 88.39116386 10.76883263 88.4006958 12.5662384 C88.39148605 13.83503342 88.38227631 15.10382843 88.37278748 16.41107178 C88.37353523 18.36193947 88.37353523 18.36193947 88.3742981 20.35221863 C88.37420842 23.10364386 88.36378836 25.85477576 88.34568787 28.60614014 C88.32297818 32.13602001 88.32246101 35.66547216 88.32920551 39.19540501 C88.33334601 42.55900964 88.32137794 45.9224819 88.31028748 49.28607178 C88.31119888 50.55689102 88.31211029 51.82771027 88.31304932 53.13703918 C88.3035173 54.30842941 88.29398529 55.47981964 88.28416443 56.68670654 C88.27725334 58.23866478 88.27725334 58.23866478 88.27020264 59.82197571 C88.00950623 62.28216553 88.00950623 62.28216553 86.00950623 64.28216553 C83.09798413 64.48095201 80.28155589 64.55482841 77.36888123 64.54095459 C76.02726929 64.54621155 76.02726929 64.54621155 74.65855408 64.55157471 C71.69212662 64.56040147 68.72593625 64.55453954 65.75950623 64.54779053 C63.70449274 64.54913691 61.64947956 64.55107721 59.59446716 64.55358887 C55.28356398 64.55654141 50.97274356 64.55223829 46.66184998 64.54290771 C41.12652498 64.53151313 35.59139392 64.53807191 30.05607605 64.55005264 C25.81141184 64.55726772 21.56679387 64.55498494 17.3221283 64.54979706 C15.28070554 64.54845958 13.23927863 64.55011168 11.19786072 64.55475616 C8.34850386 64.5598156 5.49946435 64.55211939 2.65013123 64.54095459 C1.80019592 64.54500305 0.95026062 64.54905151 0.0745697 64.55322266 C-5.76196592 64.51069338 -5.76196592 64.51069338 -7.99049377 62.28216553 C-8.24446106 59.77728271 -8.24446106 59.77728271 -8.24928284 56.57904053 C-8.25558716 55.38440186 -8.26189148 54.18976318 -8.26838684 52.95892334 C-8.26433838 51.66309326 -8.26028992 50.36726318 -8.25611877 49.03216553 C-8.25746556 47.6945997 -8.2594062 46.35703436 -8.26191711 45.01947021 C-8.26486778 42.21506086 -8.26057271 39.41077884 -8.25123596 36.60638428 C-8.23984131 33.00811631 -8.24640111 29.41014667 -8.25838089 25.81188965 C-8.26560113 23.04955794 -8.26331084 20.2872972 -8.25812531 17.52496338 C-8.25613852 15.55177619 -8.26222219 13.57858627 -8.26838684 11.60540771 C-8.26208252 10.41076904 -8.2557782 9.21613037 -8.24928284 7.98529053 C-8.24769165 6.92987061 -8.24610046 5.87445068 -8.24446106 4.78704834 C-7.71401366 -0.44476161 -4.49746472 0.04170082 0 0 Z " fill="#5D9BF5" transform="translate(204.99049377441406,223.71783447265625)"/>
<path d="M0 0 C10.07185721 3.02155716 16.11896705 5.50129659 22 14 C25.31202748 20.15850893 26.03178528 27.16554318 27 34 C28.485 33.505 28.485 33.505 30 33 C30.76090558 30.62441682 31.34958351 28.36519661 31.875 25.9375 C33.34067552 19.79738987 35.17971761 15.0592929 39 10 C39.33 10 39.66 10 40 10 C40 49.27 40 88.54 40 129 C26.8 129 13.6 129 0 129 C0 86.43 0 43.86 0 0 Z " fill="#E5E6E7" transform="translate(335,210)"/>
<path d="M0 0 C0.99 0.33 1.98 0.66 3 1 C4.0625 3.80078125 4.0625 3.80078125 5 7.3125 C6.14974302 11.59050214 7.22626376 14.5564695 10 18 C10 18.66 10 19.32 10 20 C15.52450249 22.86455685 19.66283262 24.09469037 26 25 C26 18.4 26 11.8 26 5 C32.02370293 8.97016784 37.9248344 13.0576415 43.75 17.3125 C45.20208397 18.3725213 46.65523831 19.43107763 48.109375 20.48828125 C48.86154297 21.05345459 49.61371094 21.61862793 50.38867188 22.20092773 C53.06840901 24.12000242 53.06840901 24.12000242 56.43945312 25.83227539 C60.18294989 27.89324302 63.05856548 29.85068159 66 33 C67.5879905 38.66617169 67.34467168 43.98401345 67 49.8125 C66.91079748 52.06498408 66.84064586 54.3154168 66.79760742 56.56925964 C66.75237174 58.60053046 66.6511562 60.63032727 66.546875 62.65942383 C66.67732975 66.15372799 66.67732975 66.15372799 69.359375 68.3581543 C70.23078125 68.89996338 71.1021875 69.44177246 72 70 C72.825 70.515625 73.65 71.03125 74.5 71.5625 C79.82380538 73.74906292 85.37861598 74.82401314 91 76 C91.33 77.32 91.66 78.64 92 80 C90.70906867 80.43966502 89.41719164 80.87655299 88.125 81.3125 C87.30257812 81.59351563 86.48015625 81.87453125 85.6328125 82.1640625 C83 83 83 83 80.4921875 83.5859375 C72.77832501 85.44790431 66.98480046 89.3319109 62.65625 96.1015625 C59.79819008 102.055854 58.43315188 108.58338817 57 115 C55.68 115.33 54.36 115.66 53 116 C52.70867187 114.7934375 52.41734375 113.586875 52.1171875 112.34375 C49.55021467 102.15138918 47.41315637 93.7590301 38.625 87.25 C32.41436243 83.65757239 24.94048745 82.50770298 18 81 C17.67 79.68 17.34 78.36 17 77 C19.64 76.01 22.28 75.02 25 74 C25.33 59.81 25.66 45.62 26 31 C15.44895383 33.39035013 15.44895383 33.39035013 8 40 C5.52872027 45.14661009 4.03314478 50.3987347 3 56 C1.68 55.67 0.36 55.34 -1 55 C-1.15855469 54.21496094 -1.31710937 53.42992187 -1.48046875 52.62109375 C-3.07437507 45.44411226 -4.49259648 39.12657969 -10.78515625 34.76171875 C-15.5904308 32.13458058 -20.63747116 30.94340785 -26 30 C-26 28.68 -26 27.36 -26 26 C-25.20335937 25.82984375 -24.40671875 25.6596875 -23.5859375 25.484375 C-16.27756858 23.81287457 -10.8895743 22.30237063 -5.8125 16.5 C-3.62350805 12.27298106 -2.63307142 8.14350313 -1.61328125 3.51171875 C-1 1 -1 1 0 0 Z " fill="#E5E6E6" transform="translate(309,128)"/>
<path d="M0 0 C32.67 0 65.34 0 99 0 C99 13.2 99 26.4 99 40 C86.83029472 40.11294309 74.66093729 40.20468313 62.49082661 40.25906086 C56.83979642 40.28515893 51.18914326 40.32056158 45.53833008 40.37719727 C40.08534729 40.43150841 34.63272723 40.46141895 29.17949486 40.47438622 C27.09862749 40.48362762 25.01778006 40.50167402 22.93706703 40.52865028 C20.02311877 40.5649282 17.11067081 40.56994581 14.1965332 40.56762695 C13.33554016 40.58560333 12.47454712 40.60357971 11.58746338 40.62210083 C7.19629533 40.58426959 5.5344019 40.42763684 1.98771667 37.58952332 C-5.09718435 28.35957791 -0.51049588 9.69942176 0 0 Z " fill="#E5E6E7" transform="translate(75,385)"/>
<path d="M0 0 C3.78748461 1.72158391 5.52470739 3.13491815 7 7 C7.24609566 9.92850113 7.24609566 9.92850113 7.24050903 13.40338135 C7.24325836 14.72148804 7.24600769 16.03959473 7.24884033 17.39764404 C7.24176242 18.85656829 7.23449281 20.31549162 7.22705078 21.77441406 C7.22648659 23.31193026 7.22680339 24.849447 7.22793579 26.38696289 C7.22850998 30.56019381 7.21674491 34.73330994 7.20278788 38.90651417 C7.19029161 43.2680535 7.18911089 47.62959543 7.18673706 51.9911499 C7.18051905 60.25004567 7.16410388 68.50888853 7.14403808 76.76776099 C7.12168909 86.17032765 7.11068816 95.57289682 7.10064721 104.97548342 C7.07973793 124.31701978 7.04415318 143.6585037 7 163 C-2.24 163 -11.48 163 -21 163 C-21 162.67 -21 162.34 -21 162 C-18.36 162 -15.72 162 -13 162 C-13.00460896 161.20670225 -13.00921793 160.4134045 -13.01396656 159.59606743 C-13.12439804 140.29157398 -13.20713334 120.98714359 -13.25906086 101.68240166 C-13.28484026 92.34674612 -13.31998569 83.01130144 -13.37719727 73.67578125 C-13.42704038 65.53873241 -13.45929294 57.40183628 -13.47044247 49.26463902 C-13.47695973 44.95614983 -13.4922713 40.64809752 -13.52865028 36.33974838 C-13.56262435 32.28329303 -13.57305028 28.22745394 -13.56553841 24.17086983 C-13.56691234 22.68335304 -13.57683706 21.19581534 -13.59602737 19.70842171 C-13.75111647 7.06620994 -13.75111647 7.06620994 -10.58952332 3.13064575 C-6.82668618 0.03460375 -4.86508015 -0.38157491 0 0 Z " fill="#424143" transform="translate(418,224)"/>
<path d="M0 0 C1.24081833 -0.00571014 2.48163666 -0.01142029 3.76005554 -0.01730347 C5.14274587 -0.01854889 6.52543631 -0.01967397 7.90812683 -0.02069092 C9.35842007 -0.02531819 10.80871209 -0.03034272 12.25900269 -0.03573608 C16.20537464 -0.04887166 20.15172957 -0.05530739 24.09811997 -0.05974674 C26.56291004 -0.06267585 29.02769542 -0.06678037 31.49248314 -0.07125092 C39.20198795 -0.08492944 46.9114821 -0.09459412 54.6209982 -0.09845281 C63.52452481 -0.10293336 72.42789789 -0.1204796 81.3313778 -0.1494534 C88.21042344 -0.1710631 95.08942586 -0.18115672 101.96850508 -0.18249393 C106.07838601 -0.18354255 110.18812268 -0.18946232 114.29796791 -0.20731354 C118.16476171 -0.2237818 122.03130263 -0.22595589 125.89811897 -0.21717453 C127.31669034 -0.21640346 128.73527522 -0.22075616 130.15381241 -0.23063278 C132.09183955 -0.24333398 134.02996808 -0.23569041 135.96801758 -0.22705078 C137.05221387 -0.22851734 138.13641016 -0.2299839 139.25346088 -0.2314949 C142.62031682 0.1972102 144.464428 1.12399964 147.17448425 3.14044189 C150.05588054 7.46253633 149.73665079 11.06688886 149.17448425 16.14044189 C147.14752129 24.45559679 143.44052249 32.29641641 136.17448425 37.14044189 C135.99384722 32.35356041 136.28417035 28.06086882 137.18229675 23.34747314 C137.36679382 22.36883301 137.55129089 21.39019287 137.74137878 20.38189697 C137.88430359 19.6422168 138.02722839 18.90253662 138.17448425 18.14044189 C137.43695577 18.14412907 136.69942728 18.14781624 135.93954945 18.15161514 C117.99565532 18.23994416 100.05180457 18.30614076 82.10773945 18.34769058 C73.4301199 18.36831775 64.75264544 18.39644122 56.07511902 18.44219971 C48.51196912 18.48206284 40.9489243 18.50787359 33.38567227 18.51679587 C29.380765 18.52201155 25.37615836 18.53427319 21.37134743 18.56336212 C17.60139654 18.59052316 13.83186996 18.59888564 10.06183052 18.59287262 C8.67872054 18.59397257 7.29559629 18.6019228 5.91257095 18.61726379 C4.02266982 18.63719798 2.13254073 18.62998872 0.24255371 18.62145996 C-1.34339112 18.62699072 -1.34339112 18.62699072 -2.96137524 18.63263321 C-6.5513066 18.01571758 -8.22765603 16.64151479 -10.82551575 14.14044189 C-11.97447979 11.47717502 -12.13382619 9.01800604 -11.82551575 6.14044189 C-8.4756219 0.71130359 -6.12856432 0.01683224 0 0 Z " fill="#5897F5" transform="translate(242.8255157470703,338.85955810546875)"/>
<path d="M0 0 C24.75 0 49.5 0 75 0 C77.57413308 9.65299906 80.11110805 19.26336001 82.34741211 28.99169922 C82.66107691 30.3461384 82.98021373 31.69932047 83.30444336 33.05126953 C83.78407443 35.05239828 84.24725476 37.05672842 84.70703125 39.0625 C85.11659058 40.81240234 85.11659058 40.81240234 85.53442383 42.59765625 C86.04813164 46.35173705 85.8088903 49.30589944 85 53 C82.85415692 55.62410791 81.29722638 56.81265307 77.90380859 57.30273438 C75.48437157 57.39401475 73.10642707 57.3492772 70.6875 57.25 C69.43356445 57.22292969 69.43356445 57.22292969 68.15429688 57.1953125 C66.10236772 57.14841126 64.05103244 57.07667411 62 57 C60.37539349 52.40718136 59.1958094 47.78451269 58.16015625 43.03125 C57.90872108 41.89520325 57.90872108 41.89520325 57.65220642 40.73620605 C57.11930946 38.32478654 56.59088029 35.91241273 56.0625 33.5 C55.71187233 31.91139567 55.36096317 30.32285344 55.00976562 28.734375 C52.97076894 19.49712925 50.97277319 10.25162602 49 1 C42.73 1 36.46 1 30 1 C30.28617187 2.57910156 30.57234375 4.15820312 30.8671875 5.78515625 C32.19814883 13.77679264 33.03072695 21.81006587 33.85986328 29.8659668 C34.12705099 32.45739232 34.40102821 35.04803863 34.67578125 37.63867188 C34.84935662 39.29943759 35.02254772 40.96024352 35.1953125 42.62109375 C35.27653351 43.38884628 35.35775452 44.15659882 35.44143677 44.94761658 C35.81884079 48.64683158 36.0946469 52.28074456 36 56 C34.02 56 32.04 56 30 56 C29.29655383 51.0615366 28.60338557 46.12176365 27.91870117 41.18066406 C27.6856736 39.50874316 27.45009881 37.83717481 27.21166992 36.16601562 C25.53961877 24.42984262 24.51795295 12.84742956 24 1 C18.06 1 12.12 1 6 1 C6 19.15 6 37.3 6 56 C4.02 56 2.04 56 0 56 C0 37.52 0 19.04 0 0 Z " fill="#F69318" transform="translate(412,443)"/>
<path d="M0 0 C32.67 0 65.34 0 99 0 C99 6.6 99 13.2 99 20 C86.83029472 20.11294309 74.66093729 20.20468313 62.49082661 20.25906086 C56.83979642 20.28515893 51.18914326 20.32056158 45.53833008 20.37719727 C40.08534729 20.43150841 34.63272723 20.46141895 29.17949486 20.47438622 C27.09862749 20.48362762 25.01778006 20.50167402 22.93706703 20.52865028 C20.02311877 20.5649282 17.11067081 20.56994581 14.1965332 20.56762695 C13.33554016 20.58560333 12.47454712 20.60357971 11.58746338 20.62210083 C10.39075768 20.61179085 10.39075768 20.61179085 9.1698761 20.60127258 C8.48129674 20.60588155 7.79271738 20.61049051 7.08327198 20.61523914 C5 20 5 20 0 15 C0 10.05 0 5.1 0 0 Z " fill="#D1D3D4" transform="translate(75,405)"/>
<path d="M0 0 C1.670625 0.061875 1.670625 0.061875 3.375 0.125 C3.52195313 1.04732422 3.52195313 1.04732422 3.671875 1.98828125 C4.50904801 6.98028231 4.50904801 6.98028231 7.1875 11.125 C9.57314687 12.21558142 11.80411569 12.6490677 14.375 13.125 C14.41874756 13.70467529 14.46249512 14.28435059 14.50756836 14.8815918 C14.95839431 25.90346334 14.95839431 25.90346334 19.40234375 35.49609375 C21.7407336 36.74505072 23.8081365 37.48541607 26.375 38.125 C27.045383 38.46109283 27.71576599 38.79718567 28.40646362 39.14346313 C32.68325646 40.55757073 36.74601453 40.41990075 41.22314453 40.41552734 C42.21082321 40.42224457 43.19850189 40.42896179 44.21611023 40.43588257 C47.48006228 40.45487237 50.74380865 40.45878781 54.0078125 40.4609375 C56.28360071 40.46736659 58.55938808 40.47409504 60.83517456 40.48110962 C65.6082348 40.49308618 70.38122267 40.49679023 75.15429688 40.49560547 C81.25039711 40.49540269 87.34602903 40.52266129 93.44201851 40.55714989 C98.14513246 40.57946733 102.84813477 40.58344146 107.55129623 40.58238602 C109.79741906 40.58473635 112.04354522 40.59352764 114.28961563 40.60905075 C117.44356563 40.62880075 120.59651984 40.62283617 123.75048828 40.61083984 C125.12407249 40.62769836 125.12407249 40.62769836 126.52540588 40.64489746 C136.69074647 40.54738848 145.95157193 37.15686263 153.375 30.125 C160.03963248 23.08925109 163.60004948 14.64325067 163.625 4.9375 C163.56214296 3.33240059 163.48658256 1.72744952 163.375 0.125 C169.52734375 0.02734375 169.52734375 0.02734375 171.375 0.125 C173.02898621 1.77898621 172.62558157 3.65955344 172.6875 5.9375 C172.54301074 18.3154134 166.95462835 28.23810684 158.875 37.25 C149.22080103 46.55008742 137.62723028 49.27680276 124.67285156 49.27026367 C123.23259613 49.27530159 123.23259613 49.27530159 121.76324463 49.28044128 C118.59735816 49.28991923 115.43152477 49.29189292 112.265625 49.29296875 C110.05613178 49.29618388 107.84663877 49.29954815 105.637146 49.30305481 C101.00711575 49.30903844 96.37710415 49.31089553 91.74707031 49.31030273 C85.83152514 49.31020124 79.91610033 49.32384392 74.00058365 49.34107494 C69.43649757 49.35222709 64.87244028 49.35422094 60.30834198 49.35369301 C58.12839087 49.35486864 55.9484389 49.3592669 53.76850128 49.36702538 C50.71049219 49.37688874 47.65274033 49.37392208 44.59472656 49.36791992 C43.70503174 49.37353943 42.81533691 49.37915894 41.89868164 49.38494873 C28.45392386 49.31832797 17.18300037 45.44947571 7.22265625 36.1640625 C1.08587445 29.39154644 -2.57526254 21.97040551 -4.625 13.125 C-4.80933594 12.44566406 -4.99367187 11.76632812 -5.18359375 11.06640625 C-5.87068436 8.04442368 -5.79617042 5.20606758 -5.625 2.125 C-3.625 0.125 -3.625 0.125 0 0 Z " fill="#414145" transform="translate(227.625,343.875)"/>
<path d="M0 0 C1.98291016 0.21655273 1.98291016 0.21655273 4 1 C4.98122159 3.72394336 5.71339531 6.26144322 6.375 9.0625 C8.6158056 17.46791781 11.2205864 23.50133557 18.4375 28.75 C24.38199394 32.18175286 31.37427424 33.45572277 38 35 C38.495 36.98 38.495 36.98 39 39 C37.70906867 39.43966502 36.41719164 39.87655299 35.125 40.3125 C34.30257812 40.59351563 33.48015625 40.87453125 32.6328125 41.1640625 C30 42 30 42 27.4921875 42.5859375 C19.77832501 44.44790431 13.98480046 48.3319109 9.65625 55.1015625 C6.79819008 61.055854 5.43315188 67.58338817 4 74 C2.02 74.495 2.02 74.495 0 75 C-0.29132813 73.7934375 -0.58265625 72.586875 -0.8828125 71.34375 C-3.44978533 61.15138918 -5.58684363 52.7590301 -14.375 46.25 C-20.58563757 42.65757239 -28.05951255 41.50770298 -35 40 C-35.33 38.68 -35.66 37.36 -36 36 C-32.96674922 34.96158982 -29.94514258 33.98502651 -26.8515625 33.140625 C-18.60106146 30.86324699 -12.07666555 28.70103484 -7.25390625 21.33203125 C-4.04679565 15.38695573 -2.21407247 9.77028666 -1.32421875 3.08203125 C-1 1 -1 1 0 0 Z " fill="#FEC920" transform="translate(362,169)"/>
<path d="M0 0 C5.99269128 2.69033587 8.59835512 6.9958878 11 13 C11 20.26 11 27.52 11 35 C-36.52 35 -84.04 35 -133 35 C-133 31.7 -133 28.4 -133 25 C-131.39054001 24.99413376 -129.78108002 24.98826752 -128.12284851 24.98222351 C-112.98076124 24.92509633 -97.83883726 24.85256603 -82.69690228 24.76428509 C-74.91163675 24.71929241 -67.12641733 24.67988586 -59.34106445 24.65356445 C-52.55646161 24.63061237 -45.77200424 24.59724587 -38.9875167 24.55129844 C-35.3941438 24.52732828 -31.80091529 24.5086245 -28.20746422 24.50238609 C-24.19889095 24.4952321 -20.19082126 24.46483064 -16.18237305 24.43237305 C-14.9869136 24.43380814 -13.79145416 24.43524323 -12.55976868 24.4367218 C-11.47021881 24.42418365 -10.38066895 24.41164551 -9.25810242 24.39872742 C-8.30957744 24.39411845 -7.36105246 24.38950949 -6.38378429 24.38476086 C-3.55038791 23.9274292 -2.69226195 23.28024288 -1 21 C-0.07811539 18.23434618 0.11785222 16.61716298 0.09765625 13.76953125 C0.09443359 12.96708984 0.09121094 12.16464844 0.08789062 11.33789062 C0.07951172 10.50451172 0.07113281 9.67113281 0.0625 8.8125 C0.05573242 7.5450293 0.05573242 7.5450293 0.04882812 6.25195312 C0.03705403 4.16793845 0.0191189 2.08396023 0 0 Z " fill="#7C3108" transform="translate(476,408)"/>
<path d="M0 0 C3.65885057 3.88634541 4.50201374 6.25479642 4.51898193 11.56159973 C4.52648319 12.20698958 4.53398444 12.85237942 4.541713 13.51732653 C4.56195238 15.67179315 4.55389577 17.82520356 4.54589844 19.97973633 C4.55463558 21.52726276 4.56512186 23.07478016 4.57722473 24.62228394 C4.60508842 28.8182069 4.60848934 33.01383515 4.60750484 37.2098372 C4.61063364 41.59680169 4.63625114 45.98363339 4.65948486 50.37052917 C4.70005099 58.67540523 4.720387 66.98020275 4.73345876 75.28516263 C4.74932673 84.7410337 4.7877415 94.1967711 4.82805204 103.65256464 C4.91045938 123.10167076 4.96374652 142.55075686 5 162 C-0.94 162 -6.88 162 -13 162 C-13 161.67 -13 161.34 -13 161 C-10.36 161 -7.72 161 -5 161 C-5.00460896 160.20670225 -5.00921793 159.4134045 -5.01396656 158.59606743 C-5.12439804 139.29157398 -5.20713334 119.98714359 -5.25906086 100.68240166 C-5.28484026 91.34674612 -5.31998569 82.01130144 -5.37719727 72.67578125 C-5.42704038 64.53873241 -5.45929294 56.40183628 -5.47044247 48.26463902 C-5.47695973 43.95614983 -5.4922713 39.64809752 -5.52865028 35.33974838 C-5.56262435 31.28329303 -5.57305028 27.22745394 -5.56553841 23.17086983 C-5.56691234 21.68335304 -5.57683706 20.19581534 -5.59602737 18.70842171 C-5.75116012 6.06265161 -5.75116012 6.06265161 -2.46452332 2.06814575 C-1.65123062 1.38565765 -0.83793793 0.70316956 0 0 Z " fill="#5B5B5D" transform="translate(410,225)"/>
<path d="M0 0 C0.99 0 1.98 0 3 0 C3.24234375 1.01320313 3.4846875 2.02640625 3.734375 3.0703125 C4.07230396 4.42202833 4.41088024 5.77358243 4.75 7.125 C4.90726563 7.79015625 5.06453125 8.4553125 5.2265625 9.140625 C7.03893936 16.25071882 10.63703137 22.06370677 17 26 C19.19930518 26.90991661 21.39466402 27.63084245 23.67578125 28.30859375 C27.18955064 29.35386632 30.57626909 30.69275729 34 32 C34 32.99 34 33.98 34 35 C33.01 35.21914063 32.02 35.43828125 31 35.6640625 C21.87535803 37.80573692 14.83697295 39.98074616 8.93359375 47.703125 C6.76620551 51.39863141 5.72712507 54.74224151 4.75 58.875 C4.57726562 59.56335938 4.40453125 60.25171875 4.2265625 60.9609375 C3.80728358 62.63805318 3.40214456 64.31869349 3 66 C1.68 66 0.36 66 -1 66 C-1.24234375 64.98679687 -1.4846875 63.97359375 -1.734375 62.9296875 C-2.07230396 61.57797167 -2.41088024 60.22641757 -2.75 58.875 C-2.98589844 57.87726563 -2.98589844 57.87726563 -3.2265625 56.859375 C-5.0405995 49.74276831 -8.64038464 43.94831995 -15 40 C-20.43660275 37.65994093 -26.25538814 36.35781735 -32 35 C-31.67 33.68 -31.34 32.36 -31 31 C-30.32195312 30.84144531 -29.64390625 30.68289063 -28.9453125 30.51953125 C-16.55875005 27.55332894 -16.55875005 27.55332894 -7.125 19.5625 C-4.46854618 14.66407451 -3.18530796 9.24485824 -1.796875 3.87890625 C-1 1 -1 1 0 0 Z " fill="#FEC921" transform="translate(123,313)"/>
<path d="M0 0 C18.48 0 36.96 0 56 0 C56.86625 4.08375 57.7325 8.1675 58.625 12.375 C61.0115187 23.58458741 63.5205763 34.75889383 66.17041016 45.90966797 C66.41065918 46.9307666 66.6509082 47.95186523 66.8984375 49.00390625 C67.11161621 49.89924072 67.32479492 50.7945752 67.54443359 51.71704102 C68 54 68 54 68 57 C66.02 57 64.04 57 62 57 C60.37539349 52.40718136 59.1958094 47.78451269 58.16015625 43.03125 C57.90872108 41.89520325 57.90872108 41.89520325 57.65220642 40.73620605 C57.11930946 38.32478654 56.59088029 35.91241273 56.0625 33.5 C55.71187233 31.91139567 55.36096317 30.32285344 55.00976562 28.734375 C52.97076894 19.49712925 50.97277319 10.25162602 49 1 C42.73 1 36.46 1 30 1 C30.28617187 2.57910156 30.57234375 4.15820312 30.8671875 5.78515625 C32.19814883 13.77679264 33.03072695 21.81006587 33.85986328 29.8659668 C34.12705099 32.45739232 34.40102821 35.04803863 34.67578125 37.63867188 C34.84935662 39.29943759 35.02254772 40.96024352 35.1953125 42.62109375 C35.27653351 43.38884628 35.35775452 44.15659882 35.44143677 44.94761658 C35.81884079 48.64683158 36.0946469 52.28074456 36 56 C34.02 56 32.04 56 30 56 C29.29655383 51.0615366 28.60338557 46.12176365 27.91870117 41.18066406 C27.6856736 39.50874316 27.45009881 37.83717481 27.21166992 36.16601562 C25.53961877 24.42984262 24.51795295 12.84742956 24 1 C18.06 1 12.12 1 6 1 C6 19.15 6 37.3 6 56 C4.02 56 2.04 56 0 56 C0 37.52 0 19.04 0 0 Z " fill="#EF7A16" transform="translate(412,443)"/>
<path d="M0 0 C6.27 0 12.54 0 19 0 C18.52858169 10.37120279 17.68151043 20.6218683 16.5 30.9375 C16.36940186 32.0929834 16.23880371 33.2484668 16.10424805 34.43896484 C15.97703369 35.52000488 15.84981934 36.60104492 15.71875 37.71484375 C15.60466797 38.68542725 15.49058594 39.65601074 15.37304688 40.65600586 C15 43 15 43 14 45 C6.41 45 -1.18 45 -9 45 C-9 37.125 -9 37.125 -8.17382812 33.71704102 C-7.99364136 32.95678116 -7.81345459 32.1965213 -7.62780762 31.41322327 C-7.4309436 30.61814865 -7.23407959 29.82307404 -7.03125 29.00390625 C-6.8314856 28.17036118 -6.63172119 27.3368161 -6.42590332 26.47801208 C-5.79133702 23.8376568 -5.14585768 21.20011343 -4.5 18.5625 C-4.06568044 16.76384698 -3.63207921 14.96502035 -3.19921875 13.16601562 C-2.14243763 8.77490787 -1.07091525 4.38777775 0 0 Z " fill="#FEA819" transform="translate(368,444)"/>
<path d="M0 0 C0.99 0.33 1.98 0.66 3 1 C4.0625 3.80078125 4.0625 3.80078125 5 7.3125 C6.14974302 11.59050214 7.22626376 14.5564695 10 18 C10 18.66 10 19.32 10 20 C12.9180769 21.56349617 15.75543117 22.59784181 18.9375 23.5 C22.37918181 24.50149382 25.70563866 25.57244342 29 27 C29 27.99 29 28.98 29 30 C28.07058594 30.21914062 27.14117187 30.43828125 26.18359375 30.6640625 C15.77984155 33.12335441 15.77984155 33.12335441 8 40 C5.5427436 45.15720478 4.03398727 50.39416707 3 56 C1.68 55.67 0.36 55.34 -1 55 C-1.15855469 54.21496094 -1.31710937 53.42992187 -1.48046875 52.62109375 C-3.07437507 45.44411226 -4.49259648 39.12657969 -10.78515625 34.76171875 C-15.5904308 32.13458058 -20.63747116 30.94340785 -26 30 C-26 28.68 -26 27.36 -26 26 C-25.20335937 25.82984375 -24.40671875 25.6596875 -23.5859375 25.484375 C-16.27756858 23.81287457 -10.8895743 22.30237063 -5.8125 16.5 C-3.62350805 12.27298106 -2.63307142 8.14350313 -1.61328125 3.51171875 C-1 1 -1 1 0 0 Z " fill="#FEC921" transform="translate(309,128)"/>
<path d="M0 0 C5.94 0 11.88 0 18 0 C18.5772645 4.4609145 19.14925614 8.92193864 19.70898438 13.38500977 C19.90009966 14.89709725 20.09402177 16.40883315 20.29101562 17.92016602 C21.51847455 27.35469087 22.2201297 36.45875326 22 46 C14.74 46 7.48 46 0 46 C0 30.82 0 15.64 0 0 Z " fill="#FEA819" transform="translate(418,444)"/>
<path d="M0 0 C5.61 0 11.22 0 17 0 C17 15.18 17 30.36 17 46 C9.74 46 2.48 46 -5 46 C-4.45905501 36.04661221 -3.5503681 26.16304655 -2.5 16.25 C-2.36940186 14.99993164 -2.23880371 13.74986328 -2.10424805 12.46191406 C-1.97703369 11.28338867 -1.84981934 10.10486328 -1.71875 8.890625 C-1.60466797 7.82875977 -1.49058594 6.76689453 -1.37304688 5.67285156 C-1 3 -1 3 0 0 Z " fill="#FEA819" transform="translate(394,444)"/>
<path d="M0 0 C2.35693359 -0.13867188 2.35693359 -0.13867188 6.21240234 0.18945312 C11.21240234 5.18945312 11.21240234 5.18945312 11.21240234 20.18945312 C-4.62759766 20.18945312 -20.46759766 20.18945312 -36.78759766 20.18945312 C-36.78759766 5.18945312 -36.78759766 5.18945312 -32.78759766 1.18945312 C-29.72241211 0.64355469 -29.72241211 0.64355469 -26.15087891 0.58007812 C-24.20084961 0.53173828 -24.20084961 0.53173828 -22.21142578 0.48242188 C-20.84098706 0.46772285 -19.47054422 0.45340252 -18.10009766 0.43945312 C-16.74914834 0.41126447 -15.39823421 0.38133301 -14.04736328 0.34960938 C-11.45146386 0.29582162 -8.8551697 0.25814391 -6.25878906 0.23828125 C-4.17122116 0.20891611 -2.0829694 0.14156457 0 0 Z " fill="#7B3108" transform="translate(427.78759765625,385.810546875)"/>
<path d="M0 0 C6.27 0 12.54 0 19 0 C17.40971097 8.05848384 15.72045501 16.09337093 14 24.125 C13.73960937 25.34832031 13.47921875 26.57164062 13.2109375 27.83203125 C12.82808594 29.62060547 12.82808594 29.62060547 12.4375 31.4453125 C12.20933594 32.51281738 11.98117187 33.58032227 11.74609375 34.68017578 C10.89473128 38.46840446 9.9416973 42.23321081 9 46 C2.73 46 -3.54 46 -10 46 C-9.35506579 40.19559213 -8.67163823 34.9349882 -7.44140625 29.296875 C-7.21758522 28.26835419 -7.21758522 28.26835419 -6.98924255 27.21905518 C-6.67632201 25.7868172 -6.3611252 24.35507474 -6.04370117 22.92382812 C-5.56079657 20.74230476 -5.08756674 18.55883397 -4.61523438 16.375 C-4.30786478 14.97383249 -3.99994152 13.57278629 -3.69140625 12.171875 C-3.41498291 10.9147168 -3.13855957 9.65755859 -2.85375977 8.36230469 C-2 5 -2 5 0 0 Z " fill="#FDA81B" transform="translate(343,444)"/>
<path d="M0 0 C24.75 0 49.5 0 75 0 C75.99 3.465 75.99 3.465 77 7 C78.97827485 9.39909163 78.97827485 9.39909163 81 11 C71.45528816 11.09278251 61.91073217 11.16380665 52.36566734 11.20724869 C47.93323178 11.22810139 43.50110533 11.25637633 39.06884766 11.30175781 C34.78944496 11.34529877 30.51033912 11.36915454 26.23073196 11.37950897 C24.60006667 11.38688559 22.96941716 11.4012906 21.33887863 11.42292023 C19.05027223 11.45206509 16.76288396 11.45595156 14.47412109 11.45410156 C12.52220352 11.46742523 12.52220352 11.46742523 10.53085327 11.48101807 C6.25872985 10.89901468 4.16106659 9.9342221 1 7 C0.67 4.69 0.34 2.38 0 0 Z " fill="#2367D3" transform="translate(257,489)"/>
<path d="M0 0 C2.45956421 0.93664551 2.45956421 0.93664551 5 3 C5.5113715 6.17908148 5.683902 8.82898467 5.64697266 12.01367188 C5.65573425 12.93588028 5.66449585 13.85808868 5.67352295 14.8082428 C5.6955628 17.86222123 5.68094776 20.9147564 5.6640625 23.96875 C5.66742931 26.08720173 5.67228079 28.20565158 5.67855835 30.32409668 C5.68593592 34.76621879 5.67519543 39.20783857 5.65185547 43.64990234 C5.62336758 49.35022716 5.63976677 55.04937507 5.66971779 60.74965668 C5.68776668 65.12482608 5.68204373 69.49971545 5.66907883 73.87489319 C5.66573816 75.97689451 5.66985498 78.07892109 5.68147659 80.18089294 C5.69414544 83.11672518 5.67486366 86.05063918 5.64697266 88.98632812 C5.65709381 89.85914932 5.66721497 90.73197052 5.67764282 91.63124084 C5.63491821 94.05285645 5.63491821 94.05285645 5 98 C2.45956421 100.06335449 2.45956421 100.06335449 0 101 C-0.99 100.34 -1.98 99.68 -3 99 C-3.3019381 95.90133092 -3.40918841 93.00194523 -3.38818359 89.90039062 C-3.39344055 88.95721481 -3.39869751 88.014039 -3.40411377 87.0422821 C-3.41735631 83.91343805 -3.40856058 80.78509955 -3.3984375 77.65625 C-3.40045701 75.48913474 -3.40336741 73.32202015 -3.40713501 71.15490723 C-3.41156414 66.60857689 -3.40510833 62.06242313 -3.39111328 57.51611328 C-3.37402118 51.67804154 -3.38385921 45.84038351 -3.40183067 40.00232697 C-3.41265258 35.5260301 -3.40922949 31.04983189 -3.4014473 26.5735321 C-3.39944088 24.42046561 -3.40191996 22.26739026 -3.40888596 20.11433411 C-3.41647421 17.10918322 -3.40493305 14.10470959 -3.38818359 11.09960938 C-3.39729263 9.75457588 -3.39729263 9.75457588 -3.40658569 8.38237 C-3.38095093 5.9095459 -3.38095093 5.9095459 -3 2 C-2.01 1.34 -1.02 0.68 0 0 Z " fill="#FEFEFE" transform="translate(86,209)"/>
<path d="M0 0 C16.83 0 33.66 0 51 0 C48.49655172 26.2862069 48.49655172 26.2862069 47.4375 37 C47.31181641 38.29421875 47.18613281 39.5884375 47.05664062 40.921875 C46.93353516 42.16453125 46.81042969 43.4071875 46.68359375 44.6875 C46.57587646 45.78449219 46.46815918 46.88148438 46.35717773 48.01171875 C46.03376719 50.71749118 45.57805508 53.3384159 45 56 C43.02 56 41.04 56 39 56 C38.87925433 49.25937285 39.33091005 42.75272502 40.09375 36.05859375 C40.20473022 35.05031021 40.31571045 34.04202667 40.43005371 33.00318909 C40.78212657 29.81409894 41.14095049 26.62581142 41.5 23.4375 C41.74133368 21.26241948 41.98222351 19.08728967 42.22265625 16.91210938 C42.80997404 11.60748918 43.40334356 6.30357758 44 1 C37.73 1 31.46 1 25 1 C24.67 3.97 24.34 6.94 24 10 C23.46766272 12.55742755 22.88692299 15.10526731 22.2578125 17.640625 C22.08877411 18.3295282 21.91973572 19.0184314 21.74557495 19.72821045 C21.21071779 21.90349921 20.66818431 24.07677733 20.125 26.25 C19.59239695 28.4022601 19.06142607 30.55491781 18.53070068 32.7076416 C18.18455688 34.11136846 17.83776442 35.51493554 17.49029541 36.91833496 C15.92319724 43.26304309 14.44504883 49.62632712 13 56 C11.02 56 9.04 56 7 56 C7.59216872 49.80245546 8.56531033 43.89049229 9.99609375 37.8359375 C10.18969986 36.99962799 10.38330597 36.16331848 10.58277893 35.30166626 C10.98970748 33.54820633 11.39907478 31.7953107 11.81079102 30.04296875 C12.43721124 27.37622928 13.05616402 24.70784222 13.67382812 22.0390625 C14.07248349 20.32542 14.47155778 18.6118749 14.87109375 16.8984375 C15.05449814 16.1097226 15.23790253 15.32100769 15.42686462 14.50839233 C15.60367264 13.75716095 15.78048065 13.00592957 15.96264648 12.23193359 C16.11507309 11.58179291 16.26749969 10.93165222 16.42454529 10.2618103 C17.21464691 7.15633571 18.11968132 4.08111539 19 1 C12.73 1 6.46 1 0 1 C0 0.67 0 0.34 0 0 Z " fill="#EE7A17" transform="translate(343,443)"/>
<path d="M0 0 C3.63 0 7.26 0 11 0 C12.36599523 4.99169535 13.69732455 9.99147518 15 15 C15.19207031 15.73718262 15.38414062 16.47436523 15.58203125 17.23388672 C19.93129814 34.1316762 19.93129814 34.1316762 19 41 C17.3125 43.5625 17.3125 43.5625 15 45 C12.25 45.25 12.25 45.25 10 45 C8.25506162 41.00088515 7.24026768 37.05162286 6.30859375 32.79296875 C6.158423 32.10874344 6.00825226 31.42451813 5.85353088 30.71955872 C5.53802955 29.27695734 5.2246681 27.83388648 4.91333008 26.39038086 C4.44097295 24.2035782 3.96026831 22.01873404 3.47851562 19.83398438 C3.17137164 18.42458877 2.86471535 17.01508677 2.55859375 15.60546875 C2.28329834 14.33856201 2.00800293 13.07165527 1.72436523 11.76635742 C0.97000604 7.84404558 0.45309454 3.96684407 0 0 Z " fill="#FEA819" transform="translate(468,444)"/>
<path d="M0 0 C3.96 0 7.92 0 12 0 C11.76428971 2.66015904 11.52316953 5.31998879 11.25 7.9765625 C10.95281219 10.91380007 10.95281219 10.91380007 11.0625 13.5234375 C11.0625 16.00945692 10.96331656 17.69874377 10 20 C6.68511657 22.82465419 2.50402358 26 -2 26 C-1.34 17.42 -0.68 8.84 0 0 Z " fill="#2467D2" transform="translate(369,357)"/>
<path d="M0 0 C1.32 0.33 2.64 0.66 4 1 C6.53859104 6.07718207 5 12.32353788 5 18 C-10.84 18 -26.68 18 -43 18 C-43 16.68 -43 15.36 -43 14 C-28.81 13.67 -14.62 13.34 0 13 C0 8.71 0 4.42 0 0 Z " fill="#6D2E03" transform="translate(434,388)"/>
<path d="M0 0 C3.73152858 1.17474048 5.26415485 1.76958156 7.375 5.0625 C8.16220048 10.02186303 8.16220048 10.02186303 7.375 13.0625 C4.8125 16.125 4.8125 16.125 1.375 18.0625 C-2.92944539 18.21092915 -4.80923621 17.77367869 -8.0625 14.9375 C-10.07393783 11.23645439 -10.36663232 9.215641 -9.625 5.0625 C-6.48302168 1.38408636 -4.88568266 0.08423591 0 0 Z " fill="#E97618" transform="translate(206.625,311.9375)"/>
<path d="M0 0 C0.11269443 6.1105424 -0.10395632 11.95170514 -1 18 C-4.96 18 -8.92 18 -13 18 C-12.67 13.71 -12.34 9.42 -12 5 C-12.99 4.67 -13.98 4.34 -15 4 C-13.783125 3.71125 -12.56625 3.4225 -11.3125 3.125 C-7.5694729 2.19752426 -3.80677578 0 0 0 Z " fill="#2768D0" transform="translate(377,388)"/>
<path d="M0 0 C0.7734375 1.175625 0.7734375 1.175625 1.5625 2.375 C4.25156742 5.72511932 4.25156742 5.72511932 11 7 C11.66 13.27 12.32 19.54 13 26 C5.28404296 19.38632254 1.23589484 14.51427068 0.1875 4.375 C0.10454527 2.91768711 0.03415318 1.45927239 0 0 Z " fill="#57595D" transform="translate(231,350)"/>
<path d="M0 0 C0.66 0 1.32 0 2 0 C0.89210693 8.97775416 -2.09728753 16.43665383 -8.875 22.625 C-9.926875 23.305625 -9.926875 23.305625 -11 24 C-11.23788572 17.69602854 -11.4365205 10.91027462 -9 5 C-6.92117572 3.56513584 -5.23526248 3.00265237 -2.77734375 2.46484375 C-1.89755859 2.23474609 -1.89755859 2.23474609 -1 2 C-0.67 1.34 -0.34 0.68 0 0 Z " fill="#CACED1" transform="translate(390,352)"/>
</svg>
